<?xml version="1.0" encoding="UTF-8" standalone="no"?>
<!-- Created with Inkscape (http://www.inkscape.org/) -->

<svg
   width="210mm"
   height="297mm"
   viewBox="0 0 210 297"
   version="1.1"
   id="svg1"
   xml:space="preserve"
   xmlns="http://www.w3.org/2000/svg"
   xmlns:svg="http://www.w3.org/2000/svg"><defs
     id="defs1" /><rect
     style="fill:#113555;fill-opacity:1;stroke-width:0.264583"
     id="rect8"
     width="210.05534"
     height="297"
     x="-0.7306273"
     y="0" /><g
     id="layer1"><g
       id="g1"
       transform="translate(8.0368968,-10.228782)"><path
         style="fill:#f7f7f5"
         d="m 76.728387,178.13629 c -2.894803,-1.03317 -4.543323,-3.54758 -4.537838,-6.92137 0.0065,-3.98563 2.30325,-6.66097 6.261852,-7.29398 2.626696,-0.42002 5.911718,1.10289 7.321867,3.39437 1.507771,2.45011 1.214597,6.47593 -0.635009,8.71982 -1.779227,2.15851 -5.585777,3.10944 -8.410872,2.10116 z m 4.603067,-3.18696 c 1.070496,-0.65278 1.698616,-2.03371 1.698616,-3.73441 0,-2.82571 -1.439954,-4.34242 -3.946196,-4.15653 -1.234665,0.0916 -1.550556,0.23491 -2.285787,1.03718 -1.607739,1.75435 -1.539063,4.67098 0.149751,6.35979 0.875978,0.87598 1.144547,0.99278 2.280792,0.9919 0.792898,-6.1e-4 1.601113,-0.19198 2.102824,-0.49793 z m 50.439006,3.1737 c -2.02062,-0.69796 -3.49664,-2.26826 -3.49664,-3.71997 0,-0.48902 0.16249,-0.54214 1.65365,-0.54063 1.55015,0.002 1.68117,0.0501 2.09356,0.77493 1.00762,1.77115 4.45487,1.45277 4.45487,-0.41143 0,-0.75105 -0.30967,-0.92114 -3.59047,-1.97207 -3.47654,-1.11364 -4.34703,-1.92708 -4.34703,-4.06215 0,-1.40535 0.0648,-1.55343 1.15817,-2.6468 0.94006,-0.94006 1.44771,-1.21827 2.69575,-1.47736 3.57037,-0.74121 6.41845,0.64558 7.20723,3.50935 l 0.27328,0.99219 h -1.70501 c -1.5639,0 -1.72532,-0.0534 -1.95038,-0.64537 -0.31152,-0.81935 -1.03542,-1.20672 -2.25508,-1.20672 -1.2778,0 -1.98437,0.41266 -1.98437,1.15893 0,0.93167 0.78509,1.45547 3.39972,2.26826 3.41526,1.06168 4.50959,2.04292 4.5284,4.06043 0.0187,2.00167 -1.45748,3.64952 -3.70009,4.13047 -1.84987,0.39672 -2.80536,0.35104 -4.43556,-0.21206 z m 14.88206,0.0792 c -0.5875,-0.2086 -1.50266,-0.73741 -2.0337,-1.17514 -2.42365,-1.99777 -3.19192,-6.27786 -1.68114,-9.36578 1.7669,-3.61141 6.2275,-4.82655 10.2272,-2.78605 1.89793,0.96825 3.15477,3.40529 3.15477,6.11715 v 1.28086 h -5.29166 c -5.82423,0 -5.73155,-0.0306 -4.88195,1.61234 1.09373,2.11503 4.64572,2.42886 5.67716,0.50159 0.23985,-0.44816 0.55572,-0.52643 2.12451,-0.52643 1.22353,0 1.84278,0.10333 1.84278,0.30749 0,0.58051 -1.27161,2.47094 -2.04476,3.03982 -1.81759,1.33739 -4.907,1.77039 -7.09321,0.99415 z m 5.96297,-8.83017 c 0,-0.28598 -0.36629,-0.93713 -0.81397,-1.44701 -1.80988,-2.06134 -5.08598,-1.30177 -5.91603,1.37166 l -0.18483,0.59531 h 3.45741 c 3.26062,0 3.45742,-0.0296 3.45742,-0.51996 z m -102.658336,-0.0354 v -9.02202 l 4.564062,0.10025 c 4.018123,0.0882 4.690657,0.16714 5.622396,0.65948 1.929809,1.01974 2.778125,2.48365 2.778125,4.79413 0,2.23591 -0.805409,3.6649 -2.620013,4.64855 -1.204247,0.65279 -1.777287,0.77674 -4.151051,0.89789 l -2.753936,0.14056 v 3.40158 3.40159 h -1.719792 -1.719791 z m 8.75815,-1.52863 c 0.977612,-1.2077 0.977612,-2.56185 0,-3.76955 -0.455877,-0.56317 -0.759874,-0.63842 -2.913773,-0.72124 l -2.404794,-0.0925 v 2.69848 2.69849 l 2.404794,-0.0925 c 2.153899,-0.0828 2.457896,-0.15808 2.913773,-0.72124 z m 7.11685,1.02564 v -9.525 h 1.719791 1.719792 v 9.525 9.525 h -1.719792 -1.719791 z m 26.47714,9.06157 c -1.833164,-0.93476 -1.99337,-1.42873 -2.086751,-6.43416 l -0.08357,-4.47949 h -0.908619 -0.908619 v -1.45521 -1.45521 h 0.926041 0.926042 v -1.71979 -1.71979 h 1.719792 1.719791 v 1.71979 1.71979 h 1.719792 1.719791 v 1.45521 1.45521 h -1.719791 -1.719792 l 0.0039,3.50573 c 0.0049,4.43419 0.157504,4.79897 2.053049,4.90861 l 1.382633,0.08 v 1.44138 1.44138 l -1.918229,-4.1e-4 c -1.303242,-2.8e-4 -2.209089,-0.14873 -2.825463,-0.46302 z m 9.896526,0.1327 c -0.0672,-0.1819 -0.95857,-3.18823 -1.98076,-6.68073 -1.022195,-3.4925 -1.923978,-6.55836 -2.003967,-6.81302 -0.128777,-0.40999 0.06114,-0.46287 1.658335,-0.46175 l 1.803762,0.001 1.04034,4.56279 c 1.67285,7.33696 1.35071,7.22755 2.91757,0.99091 l 1.36268,-5.42396 1.89052,-0.0775 1.89052,-0.0775 0.26505,1.00351 c 0.14577,0.55193 0.76285,3.00185 1.37128,5.44427 0.60843,2.44241 1.14087,4.40611 1.18321,4.36377 0.0728,-0.0728 2.49863,-10.43835 2.49863,-10.67661 0,-0.0618 0.78193,-0.11229 1.73762,-0.11229 1.68268,0 1.73153,0.0188 1.54492,0.59531 -0.10599,0.32742 -1.04735,3.51235 -2.09192,7.07761 l -1.89921,6.48229 -1.96081,0.0752 -1.96081,0.0752 -1.03684,-4.04392 c -1.56146,-6.09009 -1.50602,-5.91399 -1.72645,-5.48466 -0.10799,0.21033 -0.71921,2.43624 -1.35827,4.94648 l -1.16194,4.56406 h -1.93062 c -1.30291,0 -1.97036,-0.10753 -2.05284,-0.33073 z m 19.45342,-6.81302 v -7.14375 h 1.71979 1.71979 v 7.14375 7.14375 h -1.71979 -1.71979 z m 0.3107,-9.6082 c -1.2955,-1.379 -0.39873,-3.35638 1.52218,-3.35638 1.88909,0 2.79123,2.01452 1.48643,3.31931 -0.85931,0.85932 -2.2204,0.87609 -3.00861,0.0371 z m -41.311811,-9.42441 c -0.163332,-0.30519 -0.273892,-2.70823 -0.273892,-5.95312 v -5.44135 h -1.078686 c -0.839454,0 -1.250211,-0.17153 -1.852084,-0.7734 -0.692932,-0.69293 -0.773021,-0.94756 -0.769784,-2.4474 0.002,-0.92069 0.07402,-1.9366 0.160082,-2.25757 0.09588,-0.35759 1.964384,-1.93524 4.825033,-4.07396 2.56771,-1.9197 4.706473,-3.52062 4.752807,-3.5576 0.04633,-0.037 -0.358715,-0.64449 -0.900109,-1.35001 -1.294362,-1.68676 -1.944743,-3.19403 -2.264531,-5.24809 -0.907119,-5.82661 3.689332,-11.78012 9.452071,-12.24269 1.614225,-0.12958 1.719662,-0.18238 2.586829,-1.29543 3.186904,-4.09053 8.563205,-5.41815 13.280135,-3.27939 2.14735,0.97365 4.40466,3.17219 5.27303,5.13575 0.72057,1.62933 1.3025,4.46961 1.08957,5.31799 -0.11069,0.441 0.19198,0.90238 1.31931,2.01111 2.05381,2.01993 2.45031,2.76151 2.6552,4.96607 l 0.17628,1.8967 h 1.39558 c 0.76756,0 1.58831,0.074 1.82387,0.16436 0.67933,0.26068 1.20248,1.54964 1.20248,2.96271 v 1.30126 l 1.92746,0.1237 c 2.10571,0.13513 3.09445,0.59859 3.58801,1.68184 0.46241,1.01487 0.39468,1.41695 -0.78487,4.65962 -1.59089,4.37352 -2.08207,4.76981 -5.97223,4.8185 l -2.45379,0.0307 -7.21604,-7.2099 c -6.87346,-6.8676 -7.26306,-7.20989 -8.20646,-7.20989 -0.54473,0 -0.99041,0.0976 -0.99041,0.21696 0,0.11932 -0.41493,0.7017 -0.92205,1.29416 l -0.92205,1.07721 4.88146,3.61479 c 5.43096,4.0217 5.35619,3.91988 5.10483,6.95085 -0.15877,1.91458 -0.96876,2.72103 -2.73299,2.72103 h -1.17587 v 5.79252 c 0,5.03795 -0.0545,5.81345 -0.41851,5.95313 -0.23019,0.0883 -6.23866,0.1606 -13.352154,0.1606 -12.516316,0 -12.942472,-0.0165 -13.207527,-0.51178 z m 6.921422,-7.30347 c 0.06681,-4.71604 0.149156,-5.74177 0.477602,-5.94907 0.218281,-0.13777 2.982296,-0.25232 6.142254,-0.25455 5.411743,-0.004 5.761283,0.0257 6.019273,0.50772 0.16333,0.30519 0.27389,2.70824 0.27389,5.95313 v 5.44135 h 2.51354 2.51354 l 0.0434,-4.29948 c 0.0239,-2.36471 0.0209,-4.83526 -0.007,-5.4901 -0.07,-1.66701 0.20951,-1.96844 1.86907,-2.01536 0.77076,-0.0218 1.55643,-0.0535 1.74594,-0.0705 0.24603,-0.022 0.32169,-0.42191 0.26458,-1.39847 l -0.08,-1.36761 -4.63021,-3.51631 c -2.54661,-1.93397 -4.783777,-3.5212 -4.971475,-3.52718 -0.187698,-0.006 -0.789484,0.2178 -1.337303,0.49728 -0.547818,0.27947 -1.732234,0.64163 -2.632036,0.8048 -2.015933,0.36556 -2.775227,0.0791 -2.650561,-1.00001 0.07401,-0.64063 0.213454,-0.72585 1.43082,-0.87444 1.528776,-0.18661 3.287501,-0.71403 3.269098,-0.98037 -0.02654,-0.38414 -3.829653,-2.90726 -4.084384,-2.70973 -0.147921,0.11471 -3.572932,2.66346 -7.611135,5.66389 l -7.342187,5.45534 v 1.46098 1.46098 h 1.534583 c 0.844021,0 1.677458,0.14288 1.852083,0.3175 0.22707,0.22707 0.3175,1.92264 0.3175,5.95313 v 5.63562 h 2.49896 2.498961 z m 10.814386,4.97098 c 0.03301,-1.33168 0.03768,-4.66921 0.0097,-6.88572 l -0.02769,-2.18937 -4.299479,0.0727 -4.299479,0.0727 -0.07211,4.82864 -0.07211,4.82865 h 4.371594 4.371593 z m 26.415823,-13.01764 c 0.24984,-0.1337 0.5837,-0.63783 0.74192,-1.12028 0.15823,-0.48245 0.61327,-1.76008 1.01122,-2.83917 0.69358,-1.88075 0.70354,-1.97661 0.24062,-2.31511 -0.27292,-0.19956 -1.15884,-0.35312 -2.03725,-0.35312 -2.58461,0 -3.35049,-0.67783 -3.3632,-2.97656 l -0.008,-1.52135 -1.12448,-0.0313 c -0.61846,-0.0172 -1.21737,-0.016 -1.3309,0.003 -0.11354,0.0187 -0.54711,-0.14218 -0.9635,-0.3575 -0.91806,-0.47475 -1.34362,-1.58535 -1.34362,-3.50653 0,-1.42305 -0.0133,-1.44639 -2.01562,-3.54844 -1.94506,-2.04189 -2.00995,-2.15145 -1.85352,-3.12971 0.0892,-0.55756 0.0419,-1.6475 -0.10499,-2.4221 -0.55662,-2.93505 -2.17452,-5.12237 -4.81423,-6.5086 -1.22676,-0.64423 -1.68992,-0.73434 -3.77935,-0.7353 -1.88131,-8.7e-4 -2.64097,0.11865 -3.61835,0.5693 -1.750969,0.80733 -3.524191,2.54184 -4.379876,4.28428 -0.640152,1.30354 -0.731605,1.79433 -0.721856,3.87389 0.0097,2.067 0.106906,2.56576 0.736641,3.77935 0.905635,1.74529 2.379541,3.23915 3.902801,3.95562 2.12836,1.00109 2.23798,0.99452 2.58231,-0.15475 0.3778,-1.26098 0.39323,-3.02838 0.0376,-4.30868 -0.23354,-0.84075 -0.41078,-0.99796 -1.40838,-1.24916 -1.551309,-0.39062 -2.427888,-1.14306 -2.962519,-2.54297 -0.825576,-2.16175 0.06236,-4.28172 2.187009,-5.22155 2.70045,-1.19454 5.62899,0.76269 5.62899,3.76202 0,1.18048 -0.29343,1.91328 -1.13697,2.83944 -0.49498,0.54346 -0.51494,0.71057 -0.23152,1.93841 0.37293,1.61562 0.40082,3.7688 0.064,4.94308 -0.24084,0.83979 -0.22806,0.85815 0.59712,0.85815 0.75172,0 1.63267,0.792 8.11747,7.29782 l 7.27423,7.29782 1.81117,-0.15826 c 0.99614,-0.087 2.01557,-0.26766 2.2654,-0.40137 z m -8.12135,-6.71096 c -2.5048,-2.51966 -4.55417,-4.71381 -4.55417,-4.87589 0,-0.39349 0.75034,-1.12624 1.15327,-1.12624 0.34107,0 9.43006,9.02251 9.43006,9.36109 0,0.50525 -0.5933,1.22224 -1.01139,1.22224 -0.25498,0 -2.51298,-2.06154 -5.01777,-4.5812 z m -25.771806,-5.86984 c 1.431397,-1.09141 2.842236,-1.98438 3.135197,-1.98438 0.292961,0 1.710273,0.88949 3.149583,1.97664 l 2.616927,1.97664 0.739179,-0.70818 0.73918,-0.70818 -1.61438,-0.73283 c -3.241858,-1.47159 -5.359347,-3.97573 -6.223863,-7.36033 -0.433583,-1.69749 -0.410021,-4.48342 0.0479,-5.66422 0.17686,-0.45605 0.101097,-0.48947 -0.783959,-0.34584 -1.589447,0.25793 -3.737053,1.37772 -4.929802,2.57047 -3.197669,3.19767 -3.38304,8.59615 -0.415646,12.10469 0.399998,0.47294 0.77449,0.85989 0.832204,0.85989 0.05771,0 1.276079,-0.89296 2.707476,-1.98437 z m 11.091486,-11.50937 c 0.23495,0 0.64269,0.19502 0.90608,0.43339 0.39041,0.35331 0.55313,0.37177 0.88073,0.0999 1.07734,-0.89412 -0.11069,-3.17912 -1.65291,-3.17912 -1.54623,0 -2.606511,1.82104 -1.7878,3.07056 l 0.44913,0.68544 0.38879,-0.55508 c 0.21384,-0.3053 0.58103,-0.55508 0.81598,-0.55508 z"
         id="path8" /><path
         style="fill:#dec17e"
         d="m 89.70483,145.74877 0.07211,-4.82864 4.299479,-0.0727 4.299479,-0.0727 0.02769,2.18937 c 0.02803,2.21651 0.02335,5.55404 -0.0097,6.88572 l -0.01803,0.7276 H 94.00431 89.632716 Z m 15.83571,-4.05694 c 0.0127,-0.30822 0.0754,-0.37092 0.15985,-0.15985 0.0764,0.19099 0.067,0.4192 -0.0209,0.50712 -0.0879,0.0879 -0.15046,-0.0683 -0.13897,-0.34727 z m 3.76257,-4.34358 c 0,-0.80036 0.0496,-1.12778 0.11022,-0.7276 0.0606,0.40018 0.0606,1.05503 0,1.45521 -0.0606,0.40018 -0.11022,0.0728 -0.11022,-0.72761 z m 4.15585,-7.25426 c -6.4848,-6.50582 -7.36575,-7.29782 -8.11747,-7.29782 -0.82518,0 -0.83796,-0.0184 -0.59712,-0.85815 0.33678,-1.17428 0.30889,-3.32746 -0.064,-4.94308 -0.28342,-1.22784 -0.26346,-1.39495 0.23152,-1.93841 0.84354,-0.92616 1.13697,-1.65896 1.13697,-2.83944 0,-2.99933 -2.92854,-4.95656 -5.62899,-3.76202 -2.124649,0.93983 -3.012585,3.0598 -2.187009,5.22155 0.534631,1.39991 1.41121,2.15235 2.962519,2.54297 0.9976,0.2512 1.17484,0.40841 1.40838,1.24916 0.35562,1.2803 0.34019,3.0477 -0.0376,4.30868 -0.34433,1.14927 -0.45395,1.15584 -2.58231,0.15475 -1.52326,-0.71647 -2.997166,-2.21033 -3.902801,-3.95562 -0.629735,-1.21359 -0.72695,-1.71235 -0.736641,-3.77935 -0.0097,-2.07956 0.0817,-2.57035 0.721856,-3.87389 0.855685,-1.74244 2.628907,-3.47695 4.379876,-4.28428 0.97738,-0.45065 1.73704,-0.57017 3.61835,-0.5693 2.08943,9.6e-4 2.55259,0.0911 3.77935,0.7353 2.63971,1.38623 4.25761,3.57355 4.81423,6.5086 0.1469,0.7746 0.19415,1.86454 0.10499,2.4221 -0.15643,0.97826 -0.0915,1.08782 1.85352,3.12971 2.00236,2.10205 2.01562,2.12539 2.01562,3.54844 0,1.92118 0.42556,3.03178 1.34362,3.50653 0.41639,0.21532 0.84996,0.3762 0.9635,0.3575 0.11353,-0.0187 0.71244,-0.0199 1.3309,-0.003 l 1.12448,0.0313 0.008,1.52135 c 0.0127,2.29873 0.77859,2.97656 3.3632,2.97656 0.87841,0 1.76433,0.15356 2.03725,0.35312 0.46292,0.3385 0.45296,0.43436 -0.24062,2.31511 -0.39795,1.07909 -0.85299,2.35672 -1.01122,2.83917 -0.36616,1.11651 -0.78267,1.32726 -3.00732,1.52165 l -1.81117,0.15826 z m 8.98472,4.09666 c 0.15064,-0.28148 0.27389,-0.60119 0.27389,-0.71047 0,-0.33858 -9.08899,-9.36109 -9.43006,-9.36109 -0.40293,0 -1.15327,0.73275 -1.15327,1.12624 0,0.4918 9.07417,9.45709 9.57194,9.45709 0.25498,0 0.58686,-0.2303 0.7375,-0.51177 z m -18.28069,-2.06792 c -0.32911,-0.41964 -0.31975,-0.429 0.0999,-0.0999 0.44073,0.34564 0.58089,0.56291 0.36313,0.56291 -0.0549,0 -0.2633,-0.20835 -0.46302,-0.46302 z m -18.75167,-1.22437 c 0,-0.0549 0.208359,-0.2633 0.463021,-0.46302 0.419644,-0.32911 0.429002,-0.31975 0.0999,0.0999 -0.345644,0.44073 -0.562916,0.58089 -0.562916,0.36313 z m 16.635,-0.36313 c -0.32911,-0.41964 -0.31975,-0.429 0.0999,-0.0999 0.25466,0.19972 0.46302,0.40808 0.46302,0.46302 0,0.21776 -0.21728,0.0776 -0.56292,-0.36313 z m -8.827919,-0.32769 c -0.09269,-0.14999 0.01351,-0.19434 0.248969,-0.10399 0.458368,0.17589 0.542233,0.36554 0.161648,0.36554 -0.136933,0 -0.32171,-0.1177 -0.410617,-0.26155 z m 1.916356,0.0863 c 0.181901,-0.0734 0.479558,-0.0734 0.661459,0 0.181901,0.0734 0.03307,0.13345 -0.33073,0.13345 -0.363802,0 -0.51263,-0.0601 -0.330729,-0.13345 z m -2.294216,-1.03745 c 0.0127,-0.30822 0.07539,-0.37091 0.159853,-0.15985 0.07643,0.191 0.06703,0.4192 -0.02089,0.50712 -0.08792,0.0879 -0.150453,-0.0684 -0.138965,-0.34727 z m -5.312554,0.0545 c 0,-0.0549 0.208359,-0.2633 0.46302,-0.46302 0.419644,-0.32911 0.429003,-0.31975 0.0999,0.0999 -0.345643,0.44073 -0.562915,0.58089 -0.562915,0.36313 z m 11.112499,-0.004 c 0,-0.0572 0.184778,-0.17489 0.410617,-0.26155 0.23546,-0.0904 0.341663,-0.046 0.248969,0.10398 -0.155379,0.25141 -0.659586,0.37186 -0.659586,0.15757 z m -4.43177,-1.13673 c 0.254661,-0.0666 0.67138,-0.0666 0.926041,0 0.254662,0.0666 0.0463,0.121 -0.46302,0.121 -0.509323,0 -0.717683,-0.0545 -0.463021,-0.121 z m 1.487605,-2.39731 c -0.329108,-0.41964 -0.319749,-0.429 0.0999,-0.0999 0.440729,0.34564 0.580887,0.56291 0.363126,0.56291 -0.05494,0 -0.263302,-0.20835 -0.463021,-0.46302 z m 7.143749,-12.7 c -0.32911,-0.41964 -0.31975,-0.429 0.0999,-0.0999 0.44072,0.34564 0.58088,0.56292 0.36312,0.56292 -0.0549,0 -0.2633,-0.20836 -0.46302,-0.46303 z m -2.83489,-0.85989 c 0,-0.3638 0.0601,-0.51263 0.13345,-0.33073 0.0734,0.1819 0.0734,0.47956 0,0.66146 -0.0734,0.1819 -0.13345,0.0331 -0.13345,-0.33073 z m 3.36406,-1.52136 c -0.32911,-0.41964 -0.31975,-0.429 0.0999,-0.0999 0.44073,0.34564 0.58089,0.56292 0.36313,0.56292 -0.0549,0 -0.2633,-0.20836 -0.46302,-0.46303 z m -1.75219,-0.51311 c 0.25466,-0.0666 0.67138,-0.0666 0.92604,0 0.25466,0.0665 0.0463,0.121 -0.46302,0.121 -0.50932,0 -0.71768,-0.0545 -0.46302,-0.121 z"
         id="path7" /><path
         style="fill:#ad925e"
         d="m 82.439819,144.69044 -0.07121,-5.88698 -1.785938,-0.0782 -1.785937,-0.0782 v -1.37912 -1.37912 l 7.516874,-5.62025 c 4.134281,-3.09113 7.59689,-5.62025 7.694686,-5.62025 0.243486,0 3.573847,2.47768 3.573852,2.65883 8e-6,0.27322 -1.756092,0.78076 -2.701448,0.78076 -0.530234,0 -1.213734,0.21834 -1.559201,0.49808 -0.542889,0.43961 -0.578061,0.5794 -0.299567,1.19063 0.2731,0.59939 0.477572,0.69254 1.520186,0.69254 1.182459,0 4.189688,-0.85439 4.810828,-1.36681 0.368343,-0.30387 0.523989,-0.20279 5.974756,3.88035 l 3.88525,2.91042 0.005,1.38906 0.005,1.38906 h -1.53458 c -0.84402,0 -1.67746,0.14288 -1.85209,0.3175 -0.22707,0.22707 -0.3175,1.92264 -0.3175,5.95313 v 5.63562 h -2.51354 -2.51354 v -5.53461 c 0,-3.04404 -0.0723,-5.72294 -0.1606,-5.95312 -0.13992,-0.36462 -0.933831,-0.41852 -6.164794,-0.41852 -4.31715,0 -6.093403,0.0892 -6.321692,0.3175 -0.22707,0.22707 -0.3175,1.92264 -0.3175,5.95313 v 5.63562 h -2.50848 -2.50848 z m 18.092211,-31.34553 c -0.42102,-0.78669 -0.37993,-1.69973 0.10783,-2.39612 0.61709,-0.88101 2.27704,-0.82081 3.00851,0.10911 0.62875,0.79933 0.64102,0.87679 0.28654,1.80913 l -0.26182,0.68865 -0.74481,-0.55066 c -0.84678,-0.62606 -1.57602,-0.48737 -1.88922,0.3593 l -0.20298,0.54871 z"
         id="path5" /><path
         style="fill:#023964"
         d="M 207.50275,139.56044 V 55.919714 h 55.28899 55.289 l -0.5542,0.939306 c -0.30482,0.516619 -0.84835,1.141697 -1.20785,1.389063 -1.25866,0.866055 -2.71802,2.23397 -2.71802,2.547709 0,0.174122 -0.35719,0.658793 -0.79375,1.077047 -0.43656,0.418253 -0.79375,0.653864 -0.79375,0.523579 0,-0.130284 -0.53578,0.288949 -1.19063,0.931629 -0.65484,0.642681 -1.19062,1.30156 -1.19062,1.464176 0,0.332991 -1.10861,1.446241 -1.44022,1.446241 -0.32358,0 -2.77849,2.46948 -2.78632,2.802853 -0.004,0.159122 -0.59145,0.782306 -1.30604,1.384854 -0.97672,0.823582 -1.26462,1.227947 -1.15977,1.628917 0.0767,0.293356 0.25452,0.533375 0.39511,0.533375 0.14059,0 3.76161,-3.542109 8.0467,-7.871354 5.51494,-5.571755 7.7574,-8.006624 7.67579,-8.334374 -0.10926,-0.438783 1.35151,-0.463021 27.90577,-0.463021 15.41158,0 28.02106,0.07053 28.02106,0.156735 0,0.0862 -3.44334,3.584209 -7.65186,7.773345 -6.01032,5.982629 -7.58543,7.688534 -7.34219,7.951872 0.24082,0.260719 0.22851,0.289029 -0.0554,0.127326 -0.24413,-0.139058 -0.32629,-0.09166 -0.24804,0.143085 0.0644,0.193062 0.2338,0.389956 0.37656,0.437541 0.36499,0.121663 14.20776,-13.864186 14.02118,-14.166091 -0.14409,-0.233135 0.60565,-1.055416 0.81371,-0.892447 0.25818,0.202224 0.84227,-0.413587 0.95058,-1.002199 0.0669,-0.363802 0.13793,36.992055 0.15774,83.013009 0.0321,74.46536 -0.008,83.67448 -0.36351,83.67448 -0.46487,0 -2.80307,-2.12252 -2.63599,-2.39285 0.0619,-0.10024 -0.13518,-0.40653 -0.43807,-0.68064 -0.30288,-0.27411 -0.56866,-0.43885 -0.59061,-0.36609 -0.022,0.0728 -0.64241,-0.49279 -1.37879,-1.25677 -0.73639,-0.76399 -1.28048,-1.38907 -1.20911,-1.38907 0.0714,0 -0.14491,-0.29238 -0.48064,-0.64975 -0.33572,-0.35736 -0.69798,-0.62525 -0.80501,-0.59531 -0.10703,0.0299 -0.84104,-0.65994 -1.63113,-1.53306 -2.69175,-2.97466 -12.4921,-12.56771 -12.83928,-12.56771 -1.14071,0 -0.70164,0.4785 14.06363,15.32689 l 6.07525,6.10944 -25.62955,-0.008 -25.62954,-0.008 0.61656,-0.6563 c 0.66845,-0.71154 1.06055,-0.90554 0.52433,-0.25943 -0.18116,0.21828 -0.26644,0.39687 -0.18952,0.39687 0.19395,0 9.44993,-9.28542 9.44993,-9.47998 0,-0.0866 -0.62508,0.43342 -1.38906,1.15556 l -1.38906,1.31297 1.30126,-1.37718 c 0.7157,-0.75745 1.38842,-1.32332 1.49493,-1.25749 0.18791,0.11613 4.48393,-4.07243 4.4758,-4.36385 -0.002,-0.0799 -0.11842,-0.32383 -0.25819,-0.54211 -0.20242,-0.31611 -1.83069,1.17805 -8.00125,7.34219 l -7.74711,7.73906 h -1.45604 -1.45603 l -5.23285,-5.23776 c -2.87807,-2.88077 -5.13914,-5.34064 -5.0246,-5.46638 0.11453,-0.12574 0.0803,-0.1559 -0.076,-0.067 -0.15633,0.0889 -1.16538,-0.72548 -2.24234,-1.80967 -1.07695,-1.08419 -1.85333,-1.97125 -1.72528,-1.97125 0.12806,0 0.0199,-0.23532 -0.24042,-0.52293 -0.26028,-0.28761 -0.55592,-0.47183 -0.65697,-0.40938 -0.10105,0.0625 -0.88508,-0.59519 -1.74229,-1.46144 -0.85721,-0.86625 -1.45454,-1.575 -1.32741,-1.575 0.12714,0 0.0182,-0.23532 -0.24208,-0.52293 -0.26028,-0.28761 -0.54922,-0.47597 -0.64209,-0.41857 -0.0929,0.0574 -0.69598,-0.42166 -1.34024,-1.06457 -0.64426,-0.64291 -1.26673,-1.16893 -1.38328,-1.16893 -0.90139,0 1.09282,2.21674 10.16848,11.30315 l 10.38042,10.39327 h -25.52598 -25.52598 l 7.20809,-7.21167 c 3.96445,-3.96641 7.20809,-7.4122 7.20809,-7.6573 0,-1.01088 -0.62566,-0.60471 -3.35221,2.17623 -1.57602,1.60746 -3.10362,3.15462 -3.39467,3.43812 -0.29104,0.2835 -0.94588,0.93648 -1.4552,1.45105 -0.50933,0.51458 -1.58089,1.5872 -2.38125,2.3836 -0.80037,0.79641 -1.66335,1.65709 -1.91774,1.91264 -0.25439,0.25554 -1.07534,1.14923 -1.82432,1.98598 l -1.36179,1.52135 h -1.56028 c -0.85816,0 -1.70409,-0.11492 -1.87985,-0.25538 -1.59426,-1.27407 -2.30394,-1.96861 -2.30394,-2.25478 0,-0.18628 -0.50602,-0.77469 -1.12448,-1.30758 -0.61846,-0.53289 -1.20807,-1.05276 -1.31023,-1.15527 -0.10216,-0.1025 -3.82334,-3.84754 -8.2693,-8.3223 -4.44596,-4.47477 -8.24182,-8.13594 -8.43526,-8.13594 -0.82459,0 -0.19986,0.98969 2.10084,3.3281 2.38021,2.41921 3.78225,3.50203 1.94294,1.50055 l -0.9118,-0.99219 0.98189,0.90182 c 0.54004,0.496 0.91157,1.0156 0.82563,1.15466 -0.0859,0.13906 3.2822,3.69309 7.48477,7.89784 l 7.64104,7.645 -25.64534,-0.007 -25.64534,-0.007 0.89256,-0.92088 c 1.12501,-1.16072 1.41598,-1.21122 0.37523,-0.0651 -1.89157,2.08301 0.89815,-0.57113 7.08148,-6.73735 4.24788,-4.23612 6.5612,-6.73151 6.5612,-7.0776 0,-0.29401 -0.12172,-0.53456 -0.27049,-0.53456 -0.14878,0 -3.57553,3.30398 -7.61501,7.34219 -4.03948,4.0382 -7.54916,7.50559 -7.7993,7.70531 -0.42979,0.34317 -0.45478,-4.23237 -0.45478,-83.2776 z m 23.24285,66.41313 c 0.81226,-0.70448 0.70929,-1.325 -0.41009,-2.47136 -1.23197,-1.26165 -0.7259,-1.3309 0.56496,-0.0773 1.11889,1.08659 1.27723,1.11417 1.99197,0.34699 0.51766,-0.55564 0.76591,-1.4442 0.32785,-1.17347 -0.1164,0.0719 -0.35553,-0.0996 -0.53141,-0.38126 -0.38453,-0.61573 0.0514,-0.69529 1.12623,-0.20556 0.58511,0.2666 0.74171,0.22689 1.20307,-0.30507 0.55307,-0.63768 0.71717,-1.58892 0.27412,-1.58892 -0.14095,0 -0.18512,-0.18543 -0.0982,-0.41208 0.091,-0.23721 0.3292,-0.34644 0.56125,-0.25739 1.15351,0.44264 3.23277,-1.26553 3.23277,-2.65582 0,-0.37542 0.0712,-0.41354 0.31564,-0.16906 0.4431,0.4431 1.53644,-0.61766 1.53644,-1.49066 0,-0.36269 -0.081,-0.57839 -0.18009,-0.47934 -0.29109,0.29109 -1.64797,-1.16957 -1.48382,-1.59732 0.11067,-0.28842 0.43256,-0.1073 1.27005,0.71463 1.02503,1.006 1.17112,1.07047 1.69369,0.74744 0.31455,-0.19444 0.64578,-0.64478 0.73609,-1.00076 0.13442,-0.52992 -0.0414,-0.82968 -0.9699,-1.65365 -0.62374,-0.55352 -1.00389,-1.0064 -0.84477,-1.0064 0.15911,0 0.42111,-0.24631 0.58222,-0.54734 0.24586,-0.45938 0.18139,-0.6507 -0.4012,-1.19062 -0.67841,-0.62874 -1.08671,-0.84401 -0.83822,-0.44194 0.0684,0.11075 -0.0436,0.43116 -0.24897,0.71203 -0.20538,0.28087 -0.37341,0.41233 -0.37341,0.29213 0,-0.1202 -0.24766,0.0963 -0.55036,0.48112 -0.30269,0.38481 -0.65165,0.63705 -0.77547,0.56053 -0.12381,-0.0765 -0.31126,2.7e-4 -0.41656,0.17065 -0.12584,0.20361 -0.0641,0.24705 0.18015,0.12675 0.20439,-0.10067 0.14611,-0.0298 -0.1295,0.15755 -0.27561,0.18733 -0.79971,0.58813 -1.16466,0.89067 l -0.66355,0.55007 1.03237,1.14543 c 0.64014,0.71024 0.80619,1.00482 0.43706,0.77534 -0.32743,-0.20354 -0.59532,-0.44399 -0.59532,-0.53433 0,-0.24508 -1.33507,0.0214 -2.32124,0.46329 -0.47632,0.21344 -0.79672,0.50024 -0.71199,0.63733 0.0847,0.13709 0.0257,0.24925 -0.13119,0.24925 -0.17214,0 -0.21941,0.26228 -0.11923,0.66146 0.10012,0.39888 0.0529,0.66146 -0.11894,0.66146 -0.15673,0 -0.21643,-0.1786 -0.13267,-0.39688 0.26415,-0.68837 -0.27881,-0.42886 -0.83036,0.39688 -0.29104,0.43572 -0.62073,0.79257 -0.73265,0.79299 -0.11191,4.2e-4 -0.12843,0.29976 -0.0367,0.66521 0.13498,0.53778 0.0855,0.63326 -0.25954,0.50086 -0.23447,-0.09 -0.42631,-0.26992 -0.42631,-0.39987 0,-0.12995 -0.1389,-0.23628 -0.30868,-0.23628 -0.16977,0 -0.22905,0.0796 -0.13171,0.17697 0.22237,0.22237 -0.61716,1.17766 -0.88791,1.01033 -0.10958,-0.0677 -0.36156,0.0839 -0.55995,0.33697 -0.32642,0.41637 -0.31669,0.42559 0.10231,0.097 0.84902,-0.66584 0.47698,-0.15416 -0.65783,0.90475 -0.61647,0.57523 -0.84766,0.73316 -0.51375,0.35096 l 0.60711,-0.69493 -0.63492,-0.73814 -0.63492,-0.73814 -0.6963,0.50703 c -0.38297,0.27886 -0.64134,0.66203 -0.57416,0.85149 0.0672,0.18946 0.0169,0.27944 -0.11168,0.19995 -0.1286,-0.0795 -0.30447,0.0396 -0.39081,0.26459 -0.10652,0.27757 -0.0516,0.34582 0.17071,0.21227 0.25614,-0.15384 0.25542,-0.10752 -0.003,0.21211 -0.42179,0.52113 -0.15383,2.81661 0.40375,3.45868 0.24454,0.2816 0.61469,0.40445 0.95859,0.31814 0.40414,-0.10144 0.81367,0.12089 1.46997,0.79803 1.05688,1.09042 1.07426,1.09465 1.82381,0.44458 z m -0.10426,-3.54084 -1.04588,-1.12448 1.12448,1.04588 c 1.04575,0.97266 1.24606,1.20307 1.04588,1.20307 -0.0432,0 -0.54924,-0.50601 -1.12448,-1.12447 z m -2.79942,-3.04271 c -0.32911,-0.41965 -0.31975,-0.429 0.0999,-0.0999 0.44073,0.34565 0.58088,0.56292 0.36312,0.56292 -0.0549,0 -0.2633,-0.20836 -0.46302,-0.46302 z m 9.55875,-0.95979 c 0,-0.055 0.20836,-0.2633 0.46302,-0.46302 0.41964,-0.32911 0.429,-0.31975 0.0999,0.0999 -0.34565,0.44073 -0.56292,0.58089 -0.56292,0.36313 z m -0.24645,-2.69754 c 0.62167,-0.66173 1.05419,-0.89975 0.56593,-0.31142 -0.15097,0.1819 -0.25484,0.43844 -0.23084,0.57009 0.024,0.13165 -0.17731,0.27179 -0.44736,0.31142 -0.43727,0.0642 -0.42498,0.002 0.11227,-0.57009 z m 1.96811,0.15463 c -0.0927,-0.14998 0.0135,-0.19434 0.24897,-0.10399 0.45837,0.1759 0.54223,0.36554 0.16165,0.36554 -0.13694,0 -0.32171,-0.1177 -0.41062,-0.26155 z m -3.22097,-0.38827 c 0,-0.21188 0.10116,-0.32271 0.2248,-0.2463 0.12364,0.0764 0.1563,0.24977 0.0726,0.38524 -0.21395,0.34617 -0.29738,0.30719 -0.29738,-0.13894 z m 4.52956,-2.59132 -1.04588,-1.12448 1.12448,1.04588 c 0.61846,0.57524 1.12448,1.08125 1.12448,1.12448 0,0.20018 -0.23041,-1.3e-4 -1.20308,-1.04588 z m -3.824,-0.29834 c 0,-0.0549 0.20836,-0.2633 0.46302,-0.46302 0.41964,-0.3291 0.429,-0.31975 0.0999,0.0999 -0.34565,0.44073 -0.56292,0.58088 -0.56292,0.36312 z m 107.20156,13.15577 c 0.5482,-0.49612 0.66985,-1.28586 0.15313,-0.99413 -0.25307,0.14288 -0.25868,0.10866 -0.0239,-0.14572 0.23774,-0.25756 0.10059,-0.51355 -0.60889,-1.13648 -0.67026,-0.5885 -0.83684,-0.88216 -0.62138,-1.09544 0.215,-0.21283 0.58463,0.019 1.37091,0.85973 l 1.07654,1.15113 0.78968,-0.78968 c 0.64928,-0.64929 0.73867,-0.87745 0.5028,-1.28342 -0.15779,-0.27155 -0.2905,-0.37915 -0.29493,-0.2391 -0.009,0.29495 -2.65387,-2.24996 -2.65387,-2.55388 0,-0.11136 0.47312,0.3108 1.05138,0.93814 0.57826,0.62734 1.20334,1.14552 1.38906,1.1515 0.18573,0.006 0.64055,0.0921 1.01071,0.19138 0.49835,0.13364 0.8007,0.0394 1.16488,-0.36299 0.45887,-0.50705 0.46441,-0.61333 0.0826,-1.58528 l -0.40923,-1.04179 0.67938,0.2583 c 0.99474,0.3782 2.06651,0.0448 2.85022,-0.88656 0.57027,-0.67773 0.65912,-0.98183 0.51355,-1.75776 l -0.17601,-0.93825 0.52945,0.65274 0.52945,0.65273 0.68393,-0.64143 c 0.37617,-0.35279 0.68394,-0.84035 0.68394,-1.08348 0,-0.48045 -0.78113,-1.30913 -1.16207,-1.2328 -0.12982,0.026 -0.48073,-0.28045 -0.7798,-0.68103 -0.43617,-0.5842 -0.47799,-0.79363 -0.21132,-1.05833 0.26622,-0.26426 0.29651,-0.2356 0.15203,0.14383 -0.0992,0.26061 -0.074,0.4392 0.0561,0.39687 0.13009,-0.0423 0.81337,0.3952 1.5184,0.97228 l 1.28186,1.04924 0.6443,-0.74904 c 0.7672,-0.89192 0.60542,-1.24889 -0.24112,-0.53202 l -0.59693,0.50549 0.50929,-0.60112 c 0.50833,-0.6 0.50771,-0.60275 -0.33198,-1.46909 -0.76888,-0.79329 -0.80773,-0.91229 -0.45155,-1.38325 0.53792,-0.71128 0.50035,-1.2744 -0.12264,-1.8382 -0.51081,-0.46228 -0.54785,-0.46199 -1.06766,0.008 -0.29618,0.26804 -0.47613,0.64986 -0.39991,0.8485 0.0806,0.21017 0.0211,0.28853 -0.14254,0.18741 -0.35017,-0.21641 -1.56489,0.89137 -1.56489,1.42711 0,0.21717 -0.081,0.31381 -0.18009,0.21476 -0.26473,-0.26472 -1.67199,1.17188 -1.67199,1.70685 0,0.25169 0.14883,0.51767 0.33073,0.59107 0.1819,0.0734 0.003,0.14286 -0.39688,0.15434 -0.40018,0.0115 -0.77635,-0.009 -0.83593,-0.0453 -0.11844,-0.0723 -0.91544,0.96244 -1.36578,1.77322 -0.15592,0.28071 -0.45358,0.5563 -0.66146,0.61242 -0.30317,0.0819 -0.29943,0.0465 0.0189,-0.17864 0.21828,-0.15437 0.28549,-0.2825 0.14935,-0.28472 -0.44924,-0.007 -1.47226,1.13706 -1.47226,1.64696 0,0.27524 0.11737,0.71976 0.26083,0.98781 0.23949,0.4475 0.19754,0.46349 -0.51276,0.19538 -0.42548,-0.1606 -0.70393,-0.41751 -0.6188,-0.57091 0.0851,-0.15341 -0.1306,0.0164 -0.47943,0.37743 -0.34882,0.36099 -0.59453,0.77771 -0.54602,0.92604 0.0485,0.14833 -0.001,0.18014 -0.11083,0.0707 -0.10945,-0.10946 -0.41892,0 -0.68771,0.24325 -0.45807,0.41455 -0.51454,0.41044 -0.90099,-0.0656 -0.22676,-0.27931 -0.32107,-0.32924 -0.20958,-0.11096 0.16067,0.3146 0.1236,0.33579 -0.17882,0.10221 -0.3946,-0.30476 -1.30994,-0.39674 -1.23665,-0.12426 0.0228,0.0849 -0.11355,0.43441 -0.30307,0.7767 -0.18952,0.3423 -0.28545,0.84848 -0.21318,1.12485 0.0723,0.27636 0.0234,0.43576 -0.1085,0.35421 -0.31215,-0.19292 -0.30226,0.43301 0.0148,0.93431 0.15451,0.24433 0.15006,0.44953 -0.0119,0.54964 -0.41932,0.25915 0.74986,1.54165 1.27924,1.40322 0.2904,-0.0759 0.80509,0.2304 1.37505,0.81846 1.03114,1.06386 1.23165,1.11654 1.91076,0.50195 z m 1.27761,-2.30785 c 0,-0.0549 0.20836,-0.2633 0.46302,-0.46302 0.41964,-0.32911 0.429,-0.31975 0.0999,0.0999 -0.34564,0.44073 -0.56291,0.58089 -0.56291,0.36313 z m -2.91042,-1.5875 c 0,-0.0549 0.20836,-0.2633 0.46302,-0.46302 0.41964,-0.32911 0.429,-0.31975 0.0999,0.0999 -0.34564,0.44073 -0.56291,0.58089 -0.56291,0.36313 z m 5.29167,-0.79375 c 0,-0.0549 0.20836,-0.2633 0.46302,-0.46302 0.41964,-0.32911 0.429,-0.31975 0.0999,0.0999 -0.34564,0.44073 -0.56291,0.58089 -0.56291,0.36313 z m -0.45437,-3.88526 c -0.16138,-0.42754 -0.21446,-0.77642 -0.11796,-0.77528 0.26936,0.003 0.81227,1.30485 0.59916,1.43656 -0.10328,0.0638 -0.31983,-0.23374 -0.4812,-0.66128 z m 6.17094,-1.87591 c 0.27562,-0.38593 0.55405,-0.65051 0.61873,-0.58796 0.0647,0.0625 -0.16084,0.37831 -0.50114,0.70169 l -0.61872,0.58796 z m -2.65829,-1.15881 c -0.28247,-0.21365 -0.38635,-0.38846 -0.23083,-0.38846 0.15551,0 0.43097,0.1786 0.61213,0.39688 0.41201,0.49644 0.2824,0.49358 -0.3813,-0.008 z m -62.91299,11.3705 c 0.87925,-0.61586 0.74822,-1.55442 -0.338,-2.42112 -0.50932,-0.40638 -0.92604,-0.82818 -0.92604,-0.93732 -2e-5,-0.45106 0.5722,-0.13529 1.62517,0.89683 l 1.1174,1.09527 0.61178,-0.76454 c 0.64304,-0.80362 0.79572,-1.426 0.34981,-1.426 -0.14552,0 -0.26458,-0.1724 -0.26458,-0.38311 0,-0.31243 0.14933,-0.33105 0.80946,-0.10093 0.69651,0.2428 0.89545,0.2014 1.42564,-0.29669 0.5844,-0.54901 0.6656,-1.60052 0.12359,-1.60052 -0.12398,0 -0.16727,-0.15153 -0.0962,-0.33674 0.0754,-0.19651 0.57905,-0.33674 1.2094,-0.33674 0.8842,0 1.21928,-0.15568 1.84685,-0.85806 0.43031,-0.4816 0.76668,-1.16064 0.76668,-1.54773 0,-0.58999 0.0587,-0.64097 0.40606,-0.35268 0.33696,0.27965 0.49456,0.24202 0.92604,-0.22112 0.68532,-0.73561 0.65589,-1.15409 -0.13332,-1.89551 -0.35932,-0.33756 -0.5955,-0.70728 -0.52485,-0.82159 0.0706,-0.11432 0.007,-0.28263 -0.14045,-0.37403 -0.1479,-0.0914 -0.2689,-0.30302 -0.2689,-0.47025 0,-0.16723 0.51052,0.19698 1.13449,0.80937 0.62398,0.61238 1.27071,1.11342 1.4372,1.11342 0.16648,0 0.56198,-0.36414 0.87889,-0.80919 l 0.57619,-0.8092 -1.21963,-1.11974 c -0.6708,-0.61587 -1.21024,-1.29353 -1.19875,-1.50592 0.0154,-0.28546 0.0567,-0.29703 0.15802,-0.0444 0.17995,0.44848 0.87942,-0.0947 0.87942,-0.68285 0,-0.22471 -0.0803,-0.32824 -0.17852,-0.23005 -0.0982,0.0982 -0.37818,-0.12585 -0.62222,-0.49786 l -0.44369,-0.67637 -0.43009,0.87268 c -0.23655,0.47997 -0.43281,0.69554 -0.43612,0.47903 -0.003,-0.21651 -0.77993,0.42328 -1.72582,1.42177 -0.94588,0.99848 -1.71979,2.03883 -1.71979,2.31188 0,0.42991 -0.46369,0.64113 -0.94465,0.43031 -0.083,-0.0364 -0.26891,0.14472 -0.41314,0.40244 -0.14422,0.25772 -0.39237,0.38816 -0.55143,0.28985 -0.17401,-0.10754 -0.21355,-0.0563 -0.0993,0.1286 0.1062,0.17184 0.008,0.37699 -0.22182,0.46534 -0.29317,0.1125 -0.3628,0.3531 -0.24175,0.83538 0.14194,0.56554 0.0948,0.64851 -0.28564,0.50253 -0.52747,-0.20241 -1.55978,0.26681 -1.34644,0.612 0.0792,0.12817 0.0342,0.3009 -0.10005,0.38386 -0.13423,0.083 -0.18182,0.38885 -0.10574,0.67975 0.14903,0.56992 0.0801,0.61518 -0.56171,0.36888 -0.22935,-0.088 -0.35112,-0.2666 -0.27061,-0.39687 0.35921,-0.58122 -0.13634,-0.16395 -0.54378,0.45788 -0.37701,0.57539 -0.3936,0.73876 -0.0966,0.951 0.2706,0.19335 0.2424,0.21871 -0.11484,0.1033 -0.26042,-0.0841 -0.70586,-0.008 -0.98987,0.16952 -0.43789,0.27347 -0.57675,0.23629 -0.91359,-0.24462 -0.27973,-0.39936 -0.5739,-0.52384 -0.99452,-0.42085 -0.78314,0.19176 -1.28935,0.60002 -1.10793,0.89355 0.0797,0.12904 -9.4e-4,0.23461 -0.1793,0.23461 -0.17837,0 -0.24596,0.0783 -0.15021,0.17409 0.0958,0.0958 0.0415,0.33388 -0.12059,0.52917 -0.16207,0.19529 -0.18995,0.35507 -0.0619,0.35507 0.12801,0 0.18961,0.54235 0.13689,1.20522 -0.11327,1.42413 0.47867,2.31342 1.38798,2.0852 0.40415,-0.10143 0.81367,0.12089 1.46998,0.79803 1.0457,1.07889 1.02554,1.073 1.80542,0.52676 z m 1.77866,-2.76313 c 0.26339,-0.29104 0.53843,-0.52916 0.61119,-0.52916 0.0728,0 -0.0832,0.23812 -0.3466,0.52916 -0.26339,0.29105 -0.53842,0.52917 -0.61118,0.52917 -0.0728,0 0.0832,-0.23812 0.34659,-0.52917 z m -1.86453,-0.85989 -1.04589,-1.12448 1.12448,1.04588 c 1.04576,0.97267 1.24607,1.20308 1.04589,1.20308 -0.0432,0 -0.54925,-0.50602 -1.12448,-1.12448 z m 1.88155,-4.35421 c -0.14359,-0.37709 -0.1132,-0.40748 0.14811,-0.14812 0.18082,0.17948 0.26211,0.39297 0.18065,0.47443 -0.0815,0.0815 -0.22941,-0.0654 -0.32876,-0.32631 z m 1.17361,-0.88693 c 0,-0.15411 0.11906,-0.20661 0.26458,-0.11667 0.14552,0.0899 0.26459,0.21602 0.26459,0.28019 0,0.0642 -0.11907,0.11668 -0.26459,0.11668 -0.14552,0 -0.26458,-0.12609 -0.26458,-0.2802 z m 2.91042,0.18031 c 0,-0.055 0.20836,-0.2633 0.46302,-0.46302 0.41964,-0.32911 0.429,-0.31975 0.0999,0.0999 -0.34564,0.44073 -0.56291,0.58089 -0.56291,0.36313 z m 0.96467,-2.93018 c -0.38505,-0.35686 -0.70009,-0.73632 -0.70009,-0.84325 0,-0.10694 0.35719,0.14778 0.79375,0.56603 0.43656,0.41825 0.79375,0.79772 0.79375,0.84325 0,0.19096 -0.22645,0.0465 -0.88741,-0.56603 z m 2.85934,-1.53399 -1.04589,-1.12448 1.12448,1.04588 c 0.61846,0.57524 1.12448,1.08126 1.12448,1.12448 0,0.20018 -0.23041,-1.3e-4 -1.20307,-1.04588 z m -6.73443,3.24115 c 0,-0.14553 -0.12609,-0.26459 -0.2802,-0.26459 -0.15411,0 -0.20661,0.11906 -0.11668,0.26459 0.0899,0.14552 0.21603,0.26458 0.2802,0.26458 0.0642,0 0.11668,-0.11906 0.11668,-0.26458 z m -50.00625,-1.14451 c 0,-0.0474 -0.32743,-0.37482 -0.72761,-0.7276 l -0.7276,-0.64144 0.64143,0.72761 c 0.59952,0.68005 0.81378,0.84894 0.81378,0.64143 z m 57.15,-0.2697 c 0,-0.0502 -0.26789,-0.31809 -0.59531,-0.59531 l -0.59532,-0.50403 0.50403,0.59532 c 0.47366,0.55944 0.6866,0.71576 0.6866,0.50402 z m -60.85417,-0.55455 c 0,-0.27927 -0.50777,-0.39659 -0.65879,-0.15223 -0.0914,0.1479 0.0194,0.2689 0.2463,0.2689 0.22687,0 0.41249,-0.0525 0.41249,-0.11667 z m 116.15209,0.0168 c 0,-0.0549 -0.20836,-0.2633 -0.46303,-0.46302 -0.41964,-0.32911 -0.429,-0.31975 -0.0999,0.0999 0.34564,0.44073 0.56292,0.58089 0.56292,0.36313 z M 230.6823,192.59812 c 0.0934,-0.24342 -3.68868,-4.20363 -10.73903,-11.24479 -5.98577,-5.97797 -10.98846,-10.86904 -11.11709,-10.86904 -0.12863,0 -0.31402,0.12969 -0.41199,0.2882 -0.19449,0.3147 21.22252,22.10586 21.78488,22.16545 0.18647,0.0198 0.40392,-0.13316 0.48323,-0.33982 z m 56.72462,-0.36791 c 0,-0.27421 -3.16803,-3.65386 -7.40834,-7.90321 -4.07458,-4.08327 -7.40833,-7.51172 -7.40833,-7.61878 0,-0.10705 0.29029,-0.42299 0.6451,-0.70208 0.3548,-0.27909 0.97988,-1.18919 1.38906,-2.02246 1.57899,-3.21547 0.7174,-7.41138 -1.93823,-9.43911 -0.65108,-0.49714 -1.53433,-0.98088 -1.96278,-1.07498 -0.42844,-0.0941 -0.77898,-0.24987 -0.77898,-0.34615 0,-0.0963 2.40992,-2.58713 5.35539,-5.53522 l 5.35539,-5.36018 h 7.362 c 4.56885,0 7.55618,-0.10392 7.87378,-0.27389 0.48142,-0.25765 0.51177,-0.60863 0.51177,-5.91829 v -5.64439 l 1.10158,-0.14776 c 0.60586,-0.0813 1.40953,-0.37724 1.78593,-0.65772 0.63036,-0.46973 0.69038,-0.68919 0.76057,-2.7809 0.0755,-2.25119 0.0824,-2.27164 0.79375,-2.35367 0.63809,-0.0736 0.71755,-0.19264 0.71755,-1.07511 0,-0.5458 0.0272,-0.99229 0.0604,-0.99219 0.0333,9e-5 1.43988,1.36686 3.12584,3.03725 2.31559,2.29422 3.31511,3.10433 4.08634,3.312 1.05525,0.28415 3.49196,0.13881 4.92071,-0.2935 0.9067,-0.27435 2.07734,-1.40474 2.29814,-2.21912 0.0789,-0.29104 0.57535,-1.71468 1.10321,-3.16364 1.00729,-2.76498 1.04397,-3.61366 0.19792,-4.57828 -0.71684,-0.8173 -1.52632,-1.13116 -3.35866,-1.30227 l -1.71833,-0.16046 v -1.1655 c 0,-1.34934 -0.5566,-2.58119 -1.36074,-3.01155 -0.52596,-0.28149 -0.29124,-0.57117 3.7069,-4.57483 3.71994,-3.72507 4.86574,-5.19451 4.05042,-5.19451 -0.1199,0 -2.3736,2.14312 -5.00823,4.7625 -3.71832,3.69679 -4.94246,4.7625 -5.47054,4.7625 -0.65572,0 -0.68031,-0.0579 -0.68031,-1.60064 0,-1.96799 -0.40629,-2.79935 -2.38513,-4.88047 l -1.51061,-1.58868 -0.16207,-2.203 c -0.33452,-4.5471 -3.31416,-8.18014 -7.8725,-9.59886 -2.74737,-0.85508 -5.48884,-0.54447 -8.44261,0.95653 -1.20937,0.61457 -3.14738,2.3482 -3.88714,3.47722 -0.31247,0.47689 -0.64782,0.62123 -1.4433,0.62123 -1.36612,0 -4.01193,0.90726 -5.3693,1.84116 -2.85413,1.96369 -4.89662,5.31687 -4.90682,8.0556 l -0.004,1.03321 -2.80914,-2.79895 c -1.70767,-1.70147 -2.95259,-2.74389 -3.175,-2.65855 -0.20122,0.0772 -0.36586,0.24277 -0.36586,0.36788 0,0.12512 1.38849,1.6639 3.08553,3.41951 2.88678,2.98642 3.12677,3.31665 3.72583,5.12677 0.35216,1.06411 1.09655,2.53756 1.65419,3.27434 l 1.0139,1.33958 -0.57254,0.51008 c -0.3149,0.28054 -2.3915,1.8615 -4.61468,3.51325 -2.32695,1.72885 -4.10042,3.2354 -4.17949,3.55043 -0.0755,0.30099 -0.10205,1.49509 -0.0589,2.65356 0.077,2.0661 0.0956,2.11784 0.97747,2.71109 0.49447,0.33263 1.29814,0.60479 1.78594,0.60479 h 0.88691 v 5.63563 c 0,4.03048 0.0904,5.72605 0.3175,5.95312 0.22248,0.22247 1.68746,0.3175 4.8948,0.3175 3.11596,0 4.57729,0.0917 4.57729,0.28725 0,0.15799 -0.38696,0.6347 -0.8599,1.05936 -0.88059,0.79068 -2.18613,2.07332 -4.32732,4.25142 -0.66634,0.67782 -1.37672,1.39219 -1.57863,1.5875 -0.2019,0.1953 -0.9198,0.97824 -1.59532,1.73987 -0.67553,0.76163 -1.32458,1.32524 -1.44233,1.25246 -0.11776,-0.0728 -0.30026,0.007 -0.40556,0.17745 -0.12764,0.20652 -0.076,0.23843 0.15489,0.0957 0.21225,-0.13117 0.28205,-0.11003 0.1803,0.0546 -0.0913,0.14776 -0.93842,0.33066 -1.88243,0.40644 -1.77445,0.14243 -3.4814,0.90973 -4.48098,2.01425 -0.49335,0.54515 -0.49617,0.54359 -2.44707,-1.34974 l -1.95315,-1.89552 v -1.79784 -1.79783 h -1.79259 -1.79258 l -6.98798,-7.00625 c -3.84339,-3.85343 -7.014,-6.97882 -7.0458,-6.94531 -0.4948,0.52136 0.44632,1.63767 6.70489,7.95303 l 6.94531,7.00834 -0.004,8.95395 -0.004,8.95394 -4.36214,4.3281 c -2.39918,2.38045 -4.36215,4.42725 -4.36215,4.54845 0,0.88532 1.10979,0.0356 4.99099,-3.82134 l 4.42135,-4.39375 h 1.64383 1.64383 v -1.66359 c 0,-1.6365 0.0206,-1.68392 1.26759,-2.91212 l 1.26759,-1.24852 0.30414,1.13716 c 0.3649,1.36433 2.07195,3.38793 3.38259,4.00987 1.80282,0.8555 4.57852,0.9672 6.76775,0.27237 0.42448,-0.13473 1.13713,0.44439 3.5642,2.89634 1.6685,1.68561 3.1192,3.06474 3.22377,3.06474 0.10458,0 -1.23488,-1.42875 -2.97658,-3.175 -1.74171,-1.74625 -3.10828,-3.175 -3.03684,-3.175 0.0714,0 3.5224,3.4222 7.66878,7.60489 4.14639,4.18269 6.43756,6.53666 5.09149,5.23104 -1.34607,-1.30562 -2.44763,-2.25727 -2.44793,-2.11479 -7.4e-4,0.36322 4.55791,4.83172 4.96147,4.86335 0.18191,0.0143 0.33073,-0.18966 0.33073,-0.45315 z m -38.90481,-8.84748 c 0.64876,-0.69123 1.21431,-1.25677 1.25677,-1.25677 0.19867,0 -0.0114,0.23755 -1.17957,1.33397 l -1.25677,1.17957 z m 3.96875,-3.96875 c 0.64876,-0.69123 1.21431,-1.25677 1.25677,-1.25677 0.19867,0 -0.0114,0.23755 -1.17957,1.33397 l -1.25677,1.17957 z m 14.28966,-4.91339 c -1.52771,-0.67708 -2.37254,-2.07937 -2.37194,-3.93702 4.7e-4,-1.46874 0.62944,-2.86743 1.61357,-3.58825 0.95047,-0.69616 2.8979,-0.67426 3.90651,0.0439 0.8409,0.59877 1.62995,2.26547 1.61164,3.40425 -0.0155,0.96253 -0.62256,2.62092 -1.18826,3.24601 -0.44317,0.48969 -0.51329,0.44879 -2.41145,-1.40658 -1.88918,-1.84659 -2.46588,-2.20501 -2.64902,-1.64635 -0.0904,0.27576 2.92816,3.57188 3.27109,3.57188 0.10772,0 -0.5746,-0.80368 -1.51625,-1.78594 l -1.71209,-1.78594 1.91817,1.84499 c 1.81116,1.74206 2.23952,2.2213 1.67187,1.87048 -0.13546,-0.0837 -0.32108,-0.0312 -0.41249,0.11667 -0.18534,0.29989 -1.1093,0.32757 -1.73135,0.0519 z m -7.67508,-1.7012 c 1.09643,-1.16818 1.33398,-1.37824 1.33398,-1.17956 0,0.0425 -0.56555,0.608 -1.25678,1.25677 l -1.25677,1.17956 z m -1.02721,-4.80044 0.0214,-5.26347 1.69905,1.68395 c 1.59063,1.57649 2.20619,2.3172 1.30218,1.56694 -0.43395,-0.36014 -0.55531,3.2e-4 -0.13996,0.41567 0.16618,0.16618 0.11945,0.71372 -0.13229,1.55018 -0.21406,0.71129 -0.39378,1.60175 -0.39938,1.97881 -0.006,0.42815 -0.45364,1.18226 -1.1913,2.00847 l -1.18113,1.32291 z m 1.56744,-3.46779 c -0.64268,-0.65484 -1.20932,-1.19062 -1.25918,-1.19062 -0.20286,0 1.3649,1.88573 1.75949,2.11634 0.77518,0.45305 0.67999,0.27693 -0.50031,-0.92572 z m 10.71562,-2.77812 c 0.71666,-0.7276 1.36256,-1.32292 1.43532,-1.32292 0.0728,0 -0.45407,0.59532 -1.17074,1.32292 -0.71666,0.7276 -1.36255,1.32292 -1.43531,1.32292 -0.0728,0 0.45407,-0.59532 1.17073,-1.32292 z m 3.83646,-3.83646 c 0.79042,-0.80036 1.49666,-1.45521 1.56942,-1.45521 0.0728,0 -0.51442,0.65485 -1.30484,1.45521 -0.79042,0.80037 -1.49666,1.45521 -1.56942,1.45521 -0.0728,0 0.51442,-0.65484 1.30484,-1.45521 z m -24.08051,-2.97656 -3.83303,-3.9026 3.9026,3.83303 c 3.62541,3.56079 4.02239,3.97217 3.83304,3.97217 -0.0383,0 -1.79444,-1.75617 -3.90261,-3.9026 z m 27.91697,-0.8599 c 0.71666,-0.7276 1.36255,-1.32291 1.43531,-1.32291 0.0728,0 -0.45407,0.59531 -1.17073,1.32291 -0.71666,0.72761 -1.36256,1.32292 -1.43532,1.32292 -0.0728,0 0.45407,-0.59531 1.17074,-1.32292 z m -33.35415,-4.56406 -0.7771,-0.85989 0.85989,0.7771 c 0.47295,0.42741 0.8599,0.81436 0.8599,0.8599 0,0.2044 -0.21832,0.0244 -0.94269,-0.77711 z m -3.83984,-3.83646 -0.64143,-0.7276 0.72761,0.64143 c 0.68005,0.59952 0.84893,0.81378 0.64143,0.81378 -0.0474,0 -0.37482,-0.32742 -0.72761,-0.72761 z m 57.78756,-12.83229 c -0.11409,-0.1819 -0.17096,-0.5521 -0.12637,-0.82267 0.0446,-0.27057 -0.0179,-0.43828 -0.1389,-0.3727 -0.30658,0.1662 -1.14167,-0.76199 -0.92552,-1.02872 0.097,-0.11971 -0.0765,-0.006 -0.38566,0.25344 -0.54308,0.45521 -0.58774,0.45006 -1.32292,-0.15247 -0.41848,-0.34296 -1.79913,-1.37122 -3.06812,-2.28501 l -2.30725,-1.66143 0.97422,-1.16548 c 1.58136,-1.89181 1.80519,-1.79616 6.33689,2.70803 2.14344,2.13043 3.64062,3.7133 3.32706,3.51748 -0.49507,-0.30918 -0.64171,-0.29125 -1.11407,0.13624 -0.29919,0.27076 -0.54397,0.65243 -0.54397,0.84815 0,0.44771 -0.4307,0.46306 -0.70539,0.0251 z m -10.7158,-7.80521 c -0.20762,-0.46714 -4.86835,-3.77031 -5.31987,-3.77031 -0.45723,0 -4.44507,2.77949 -4.6461,3.2383 -0.15559,0.35511 -0.76196,0.21543 -1.13618,-0.26174 -0.3363,-0.42882 -0.32404,-0.43404 0.16604,-0.0707 0.52264,0.38747 0.52302,0.3851 0.0308,-0.1922 -0.27411,-0.32148 -0.58103,-0.53343 -0.68205,-0.471 -0.10102,0.0624 -0.65066,-0.44514 -1.22141,-1.12795 l -1.03774,-1.24146 0.009,-2.38402 c 0.008,-2.07812 0.103,-2.56443 0.74066,-3.79004 0.98326,-1.88989 2.84766,-3.62591 4.59691,-4.28039 2.31113,-0.8647 2.41583,-0.81245 2.13182,1.06397 -0.4517,2.98442 0.5054,6.42105 2.44289,8.77155 0.90834,1.10198 3.12927,2.63219 4.56168,3.14297 l 0.98934,0.35279 -0.57244,0.60934 c -0.59311,0.63134 -0.90195,0.7518 -1.05346,0.41089 z m -12.14676,-1.05833 -0.64143,-0.7276 0.7276,0.64143 c 0.68006,0.59952 0.84894,0.81377 0.64144,0.81377 -0.0474,0 -0.37482,-0.32742 -0.72761,-0.7276 z m -7.39262,-7.40833 -3.03839,-3.10886 3.10885,3.0384 c 2.88769,2.82223 3.22894,3.17931 3.03839,3.17931 -0.0387,0 -1.43773,-1.39898 -3.10885,-3.10885 z m 75.53508,75.53854 c -0.0967,-0.32743 -3.68633,-4.11817 -7.97705,-8.42388 l -7.80132,-7.82856 0.29756,-1.10505 c 0.38971,-1.44728 0.12064,-2.76695 -0.73955,-3.62714 -0.92123,-0.92123 -1.59318,-1.24267 -4.33753,-2.07492 -2.49197,-0.75571 -3.10805,-1.29767 -2.58537,-2.27431 0.31413,-0.58695 1.21177,-0.71432 1.39859,-0.19843 0.0949,0.26205 0.24141,0.25873 0.70553,-0.016 0.49404,-0.29244 0.68589,-0.28112 1.2252,0.0722 0.35168,0.23044 0.63943,0.59482 0.63943,0.80975 0,0.30743 0.39502,0.39078 1.85208,0.39078 1.68775,0 1.85209,-0.0479 1.85209,-0.53971 0,-0.83318 -0.95813,-2.51724 -1.77658,-3.12264 l -0.73697,-0.54512 6.15157,-6.16656 c 3.38336,-3.39161 6.15156,-6.30058 6.15156,-6.46437 0,-0.61031 -1.0187,-0.56811 -1.61528,0.0669 -0.32649,0.34754 -0.4873,0.63189 -0.35735,0.63189 0.12995,0 -0.46757,0.71126 -1.32782,1.58058 -0.86024,0.86932 -1.62076,1.52391 -1.69003,1.45464 -0.17842,-0.17842 -1.10613,0.70137 -0.97068,0.92054 0.0615,0.0995 -1.54637,1.83584 -3.57299,3.85859 l -3.68478,3.67772 -2.07931,-0.0788 c -2.21095,-0.0838 -3.63877,0.3106 -4.68585,1.29428 -0.54248,0.50964 -0.55133,0.50453 -2.46704,-1.42405 -1.76227,-1.77412 -1.90575,-1.99984 -1.72059,-2.70691 0.30068,-1.14822 0.14326,-1.75999 -0.63198,-2.45589 -0.5903,-0.52989 -0.88677,-0.60376 -1.92809,-0.48043 l -1.23054,0.14573 -6.57787,-6.59717 c -3.61783,-3.62844 -6.5993,-6.59717 -6.62548,-6.59717 -0.0262,0 -0.1062,0.22408 -0.17782,0.49796 -0.0985,0.37681 1.44713,2.06648 6.35339,6.94531 3.56598,3.54605 6.39026,6.28013 6.27618,6.07575 -0.12821,-0.22971 -0.10378,-0.30757 0.064,-0.20389 0.14926,0.0923 0.2157,0.64979 0.14764,1.23898 -0.21614,1.87113 1.24572,3.23843 2.86053,2.67551 0.6062,-0.21132 0.8084,-0.15789 1.21227,0.32036 l 0.48473,0.57398 -0.66146,-0.51918 c -0.3638,-0.28555 0.22267,0.39316 1.30326,1.50823 1.0806,1.11508 2.06251,1.96699 2.18202,1.89313 0.11951,-0.0739 0.0986,0.17791 -0.0465,0.55951 -0.4126,1.08522 -0.30928,2.56586 0.24214,3.47016 l 0.50394,0.82644 -1.96014,1.8904 -1.96014,1.89039 v -5.42881 -5.42881 h -1.98437 -1.98438 v 7.4586 7.4586 l -3.86236,3.79246 c -2.56013,2.5138 -3.81182,3.92415 -3.71247,4.18306 0.0824,0.21484 0.24432,0.39061 0.35973,0.39061 0.11542,0 2.11206,-1.905 4.43698,-4.23333 l 4.22713,-4.23334 h 1.25987 1.25987 v -1.26228 c 0,-1.23525 0.0498,-1.31182 2.3232,-3.57473 l 2.3232,-2.31243 2.3558,0.79631 c 1.29569,0.43797 2.64109,1.06433 2.98978,1.39191 0.34869,0.32758 0.71369,0.57774 0.81111,0.55591 0.0974,-0.0218 0.1423,0.0972 0.0997,0.26458 -0.14211,0.55874 -1.16378,1.23033 -1.87016,1.22933 -0.88345,-0.001 -2.41808,-0.9217 -2.41808,-1.45033 0,-0.32293 -0.39185,-0.40077 -2.01745,-0.40077 h -2.01745 l 0.16756,0.8378 c 0.65969,3.29847 5.8859,5.10359 9.51066,3.28497 l 1.36813,-0.68642 6.74688,6.79622 c 3.71078,3.73792 7.28266,7.27363 7.9375,7.85713 0.65484,0.58351 -1.36922,-1.55132 -4.49792,-4.74407 l -5.68854,-5.805 5.73098,5.66254 c 3.4776,3.43607 5.67715,5.80281 5.59409,6.01927 -0.0813,0.21172 0.0432,0.35673 0.30612,0.35673 0.3351,0 0.40021,-0.14501 0.26728,-0.59531 z m -14.95542,-14.41979 -0.9118,-0.99219 0.99219,0.9118 c 0.5457,0.50148 0.99219,0.94797 0.99219,0.99218 0,0.20204 -0.2239,0.0117 -1.07258,-0.91179 z m -11.49513,-6.68073 c 0.26339,-0.29105 0.53842,-0.52917 0.61118,-0.52917 0.0728,0 -0.0832,0.23812 -0.3466,0.52917 -0.26339,0.29104 -0.53842,0.52916 -0.61118,0.52916 -0.0728,0 0.0832,-0.23812 0.3466,-0.52916 z m 11.77396,-11.50938 c 0.34177,-0.3638 0.68094,-0.66146 0.7537,-0.66146 0.0728,0 -0.14735,0.29766 -0.48912,0.66146 -0.34178,0.3638 -0.68094,0.66146 -0.7537,0.66146 -0.0728,0 0.14734,-0.29766 0.48912,-0.66146 z m 3.83645,-3.83646 c 0.56839,-0.58208 1.09297,-1.05833 1.16573,-1.05833 0.0728,0 -0.33275,0.47625 -0.90114,1.05833 -0.56839,0.58209 -1.09297,1.05834 -1.16573,1.05834 -0.0728,0 0.33276,-0.47625 0.90114,-1.05834 z m -0.66145,-0.0999 c 0,-0.0549 0.20836,-0.2633 0.46302,-0.46302 0.41964,-0.32911 0.429,-0.31975 0.0999,0.0999 -0.34564,0.44073 -0.56291,0.58089 -0.56291,0.36313 z m 4.49791,-3.73656 c 0.49366,-0.50933 0.95709,-0.92605 1.02985,-0.92605 0.0728,0 -0.27161,0.41672 -0.76526,0.92605 -0.49366,0.50932 -0.95709,0.92604 -1.02985,0.92604 -0.0728,0 0.27161,-0.41672 0.76526,-0.92604 z m -0.13229,-0.66146 c 0.26339,-0.29104 0.53842,-0.52917 0.61118,-0.52917 0.0728,0 -0.0832,0.23813 -0.3466,0.52917 -0.26338,0.29104 -0.53842,0.52916 -0.61118,0.52916 -0.0728,0 0.0832,-0.23812 0.3466,-0.52916 z m -91.9543,40.76749 c 0.26454,-0.4943 0.11048,-2.04598 -0.22364,-2.25248 -0.0918,-0.0567 -0.55266,0.0591 -1.02416,0.25732 -0.92833,0.39033 -1.1058,1.05356 -0.52905,1.97709 0.41775,0.66893 1.42305,0.67915 1.77685,0.0181 z m -0.78216,-0.39023 c 0,-0.0572 0.18478,-0.17489 0.41062,-0.26155 0.23546,-0.0904 0.34166,-0.046 0.24896,0.10398 -0.15537,0.25141 -0.65958,0.37186 -0.65958,0.15757 z m 114.02611,0.12138 c 0.40066,-0.74865 0.33584,-1.36349 -0.18913,-1.79378 -0.25466,-0.20874 -0.2958,-0.29277 -0.0914,-0.18673 0.24536,0.12729 0.30703,0.0883 0.18152,-0.11478 -0.17818,-0.28831 -1.18928,-0.24916 -1.69886,0.0658 -0.3299,0.20389 -0.32733,1.8041 0.004,2.20278 0.42286,0.50951 1.48375,0.40708 1.79434,-0.17326 z m -56.37055,-0.12124 c 0.33225,-0.40033 0.16094,-1.97747 -0.26086,-2.40167 -0.33338,-0.33528 -1.66745,0.45898 -1.79215,1.06698 -0.25381,1.23753 1.29694,2.2457 2.05301,1.33469 z m -21.53204,-5.97363 c -1.15299,-1.15979 -2.1429,-2.06217 -2.19979,-2.00528 -0.15007,0.15007 3.73077,4.09648 4.03777,4.106 0.14211,0.004 -0.68498,-0.94092 -1.83798,-2.10072 z m 85.04584,-4.36375 c 2.97512,-2.97777 5.34976,-5.47368 5.27699,-5.54646 -0.0728,-0.0728 -2.50694,2.24452 -5.40925,5.14956 -2.90231,2.90503 -5.4339,5.28188 -5.62575,5.28188 -0.19186,0 -0.27524,0.11906 -0.18531,0.26458 0.0899,0.14552 0.24688,0.26458 0.34877,0.26458 0.10188,0 2.61943,-2.43636 5.59455,-5.41414 z m 2.23906,-2.98638 c 4.21112,-4.18372 7.48609,-7.37905 7.27772,-7.10072 -0.33142,0.44269 -0.32916,0.48962 0.018,0.37483 0.45039,-0.14892 0.54122,-1.05325 0.11989,-1.19369 -0.24359,-0.0812 -10.81299,10.16079 -10.83492,10.49927 -0.0162,0.25036 -2.604,2.77806 -2.78843,2.72369 -0.10155,-0.03 -0.45931,0.23794 -0.79504,0.59531 -0.33572,0.35736 -0.51167,0.64975 -0.39099,0.64975 0.12068,0 0.004,0.23812 -0.25947,0.52917 -0.26339,0.29104 -0.3719,0.52916 -0.24113,0.52916 0.13077,0 3.68323,-3.42304 7.89434,-7.60677 z m -26.43863,-0.87615 c 1.30965,-0.59554 2.01699,-1.20591 2.89237,-2.49585 1.06935,-1.57578 0.96081,-1.72123 -1.28451,-1.72123 -1.82947,0 -2.0184,0.0544 -2.75778,0.79375 -0.67876,0.67877 -0.99339,0.79375 -2.17192,0.79375 -1.23754,0 -1.46911,-0.0964 -2.26931,-0.94488 -0.49013,-0.51968 -0.89114,-1.17453 -0.89114,-1.45521 0,-0.48653 0.23962,-0.51032 5.13835,-0.51032 h 5.13836 l 0.1702,-0.77493 c 0.24893,-1.13337 -0.28852,-3.63095 -1.06729,-4.95982 -1.24995,-2.13288 -3.52151,-3.1296 -6.70238,-2.94087 -2.28868,0.13579 -3.30105,0.56817 -4.77025,2.03738 -1.27002,1.27002 -1.8758,3.02339 -1.87553,5.4286 5.3e-4,4.76754 3.44763,7.85946 8.20188,7.35678 0.65484,-0.0692 1.66687,-0.34245 2.24895,-0.60715 z m -6.48229,-8.46355 c 0,-0.53164 0.79463,-1.80955 1.38028,-2.21976 0.33305,-0.23327 1.1355,-0.41293 1.84439,-0.41293 1.01712,0 1.42618,0.15044 2.15932,0.79414 0.49746,0.43678 0.96134,1.09162 1.03084,1.45521 l 0.12638,0.66106 h -3.27061 c -2.10716,0 -3.2706,-0.0988 -3.2706,-0.27772 z m -92.33958,5.46637 v -3.54261 l 2.86955,-0.0982 c 2.63833,-0.0903 2.97218,-0.16195 4.14323,-0.88916 3.90362,-2.42413 3.06114,-8.65979 -1.34263,-9.93746 -0.88191,-0.25587 -2.63311,-0.37849 -5.40557,-0.37849 h -4.10104 l -0.0698,8.86166 c -0.0384,4.87392 -0.0124,9.01134 0.0578,9.19427 0.0857,0.22346 0.73817,0.33261 1.98802,0.33261 h 1.86039 z m 0,-9.28969 v -2.51354 l 1.25677,0.006 c 1.84054,0.009 3.30998,0.41842 3.83645,1.06828 0.69977,0.86376 0.60688,2.50978 -0.18641,3.30306 -0.58189,0.58189 -0.8708,0.64943 -2.77812,0.64943 h -2.12869 z m 43.39166,11.1125 v -1.71979 h -1.27 c -0.6985,0 -1.41287,-0.14288 -1.5875,-0.3175 -0.21627,-0.21627 -0.3175,-1.48167 -0.3175,-3.96875 v -3.65125 h 1.5875 1.5875 v -1.71979 -1.71979 h -1.5875 -1.5875 v -1.7198 -1.71979 h -1.98437 -1.98438 v 1.71979 1.7198 h -0.79375 -0.79375 v 1.71979 1.71979 h 0.79375 0.79375 v 3.587 c 0,4.1248 0.29312,5.62064 1.28174,6.54087 0.96461,0.89788 1.9798,1.20381 4.07607,1.22832 l 1.78594,0.0209 z m 9.43184,0.99219 c 0.0998,-0.40018 0.67041,-2.59861 1.26797,-4.8854 l 1.08646,-4.1578 0.73598,2.83488 c 0.40479,1.55918 0.98061,3.75762 1.27961,4.8854 l 0.54362,2.05052 h 2.03449 2.0345 l 2.03685,-6.98798 c 1.12027,-3.84339 2.11156,-7.18265 2.20287,-7.42059 0.14592,-0.38026 -0.0687,-0.42312 -1.77359,-0.35421 l -1.9396,0.0784 -1.1272,4.89479 c -0.61996,2.69213 -1.16494,5.07338 -1.21108,5.29167 -0.0461,0.21828 -0.66761,-2.01414 -1.38106,-4.96094 l -1.29719,-5.35781 h -2.03849 -2.03848 l -1.27774,5.15486 c -0.70275,2.83517 -1.35679,5.00806 -1.45341,4.82864 -0.0966,-0.17942 -0.37596,-1.21918 -0.62075,-2.31059 -0.24478,-1.0914 -0.74484,-3.26429 -1.11125,-4.82864 l -0.66618,-2.84427 h -1.99052 c -1.48052,0 -1.95953,0.0847 -1.86958,0.33073 0.0665,0.1819 1.05567,3.51565 2.19814,7.40833 l 2.0772,7.0776 h 2.05846 c 2.02522,0 2.0614,-0.0118 2.23997,-0.7276 z m 77.66834,-3.48418 c 1.06212,-1.0068 1.86537,-1.89628 1.78502,-1.97664 -0.0804,-0.0804 -1.02965,0.74339 -2.10955,1.83054 -1.07989,1.08715 -1.88315,1.97663 -1.78501,1.97663 0.0981,0 1.04743,-0.82374 2.10954,-1.83053 z m -161.10074,-8.98031 c 2.57862,-2.62461 3.53218,-3.95626 1.43858,-2.00899 l -1.12448,1.04588 1.03519,-1.11352 c 0.56935,-0.61243 1.13007,-1.05487 1.24605,-0.98319 0.32085,0.19829 2.39119,-1.77726 2.2495,-2.14651 -0.0682,-0.17768 0.31326,-0.72439 0.84765,-1.21491 l 0.97161,-0.89186 -0.92604,1.04906 -0.92604,1.04906 1.32292,-1.17179 c 2.01563,-1.78539 6.74687,-6.56524 6.74687,-6.81619 0,-0.12211 -0.1339,-0.35592 -0.29756,-0.51958 -0.22037,-0.22037 -2.12523,1.5363 -7.34219,6.771 -7.94775,7.97476 -8.10624,8.14482 -8.35496,8.965 -0.3579,1.1802 0.55587,0.58916 3.1129,-2.01346 z m -1.93485,1.15356 c 0.49365,-0.50932 0.95708,-0.92604 1.02984,-0.92604 0.0728,0 -0.27161,0.41672 -0.76526,0.92604 -0.49366,0.50932 -0.95709,0.92604 -1.02985,0.92604 -0.0728,0 0.27161,-0.41672 0.76527,-0.92604 z M 220.9965,154.477 c 0.34177,-0.3638 0.68094,-0.66146 0.7537,-0.66146 0.0728,0 -0.14734,0.29766 -0.48912,0.66146 -0.34177,0.3638 -0.68094,0.66146 -0.7537,0.66146 -0.0728,0 0.14735,-0.29766 0.48912,-0.66146 z m 154.63707,11.70781 c -0.0989,-0.32742 -0.4939,-0.93413 -0.87773,-1.34824 -2.4744,-2.66957 -20.46513,-20.54603 -20.67737,-20.54603 -0.38608,0 -0.31701,0.94717 0.0939,1.28822 0.19529,0.16208 0.4143,0.23546 0.48669,0.16307 0.0724,-0.0724 0.35909,0.137 0.63711,0.46532 l 0.5055,0.59693 -0.59531,-0.50403 c -0.32742,-0.27721 -0.59531,-0.39684 -0.59531,-0.26584 0,0.38319 20.46734,20.74591 20.85249,20.74591 0.23969,0 0.29321,-0.18743 0.16999,-0.59531 z m -1.45756,-0.92604 -0.9118,-0.99219 0.99219,0.9118 c 0.9235,0.84868 1.11384,1.07258 0.9118,1.07258 -0.0442,0 -0.4907,-0.44649 -0.99219,-0.99219 z m -2.90382,-2.91042 -1.71215,-1.78594 1.78594,1.71215 c 0.98227,0.94168 1.78594,1.74536 1.78594,1.78594 0,0.19474 -0.26941,-0.0533 -1.85973,-1.71215 z m -4.36793,-4.36562 -1.31297,-1.38906 1.38907,1.31297 c 1.29074,1.22003 1.5104,1.46515 1.31297,1.46515 -0.0419,0 -0.66693,-0.62508 -1.38907,-1.38906 z m -3.97544,-3.96875 -0.77711,-0.8599 0.8599,0.77711 c 0.47294,0.42741 0.85989,0.81436 0.85989,0.85989 0,0.20441 -0.21831,0.0244 -0.94268,-0.7771 z m -3.96875,-3.96875 -0.77711,-0.8599 0.8599,0.77711 c 0.47294,0.42741 0.85989,0.81436 0.85989,0.85989 0,0.20441 -0.21831,0.0244 -0.94268,-0.7771 z M 231.31525,147.5361 c 0,-0.34703 -0.0997,-0.56933 -0.22159,-0.49401 -0.12187,0.0753 -0.66244,-0.31452 -1.20126,-0.86633 -1.40502,-1.43886 -0.40176,-1.37961 1.10967,0.0655 l 1.14202,1.09195 0.64391,-0.74236 c 0.84899,-0.97878 0.82955,-1.50865 -0.0259,-0.70503 l -0.66977,0.62922 -1.11616,-1.17403 -1.11616,-1.17403 1.1431,1.05395 1.14311,1.05395 0.51452,-0.62955 c 0.39505,-0.48336 0.44464,-0.71376 0.21356,-0.99219 -0.38196,-0.46023 -0.0295,-0.44979 0.82217,0.0244 0.59483,0.33117 0.72141,0.31226 1.25677,-0.18778 0.60726,-0.56721 0.82233,-1.78673 0.31511,-1.78673 -0.15411,0 -0.20661,-0.11906 -0.11668,-0.26458 0.0899,-0.14552 0.58512,-0.26459 1.10041,-0.26459 0.7127,0 1.15215,-0.21526 1.83647,-0.89958 0.49477,-0.49477 0.89958,-1.14588 0.89958,-1.4469 0,-0.36459 0.12568,-0.4991 0.37642,-0.40288 0.47905,0.18383 1.47567,-0.7976 1.47567,-1.45318 0,-0.27411 -0.4666,-0.91992 -1.03688,-1.43514 -0.67673,-0.61138 -0.918,-0.98237 -0.69462,-1.06809 0.18824,-0.0722 0.79806,0.33545 1.35515,0.90597 1.13728,1.16467 1.32325,1.22016 2.00916,0.59942 0.79217,-0.7169 0.59623,-1.54531 -0.58721,-2.48262 -1.04488,-0.82756 -1.05782,-0.85758 -0.52917,-1.22786 0.29804,-0.20876 0.5419,-0.52993 0.5419,-0.71372 0,-0.35079 -1.3186,-1.62864 -1.3288,-1.28773 -0.003,0.10818 -0.25169,0.49435 -0.55213,0.85815 -0.30043,0.3638 -0.45796,0.48286 -0.35007,0.26458 0.27676,-0.55992 -1.36213,0.98981 -2.32955,2.20281 l -0.80726,1.01219 1.55942,1.61887 c 0.85769,0.89037 1.36988,1.47772 1.13821,1.30521 -0.23167,-0.17251 -0.50948,-0.22539 -0.61736,-0.11751 -0.10788,0.10788 -0.15645,0.0616 -0.10795,-0.10272 0.11054,-0.37459 -1.26576,-1.69126 -1.52539,-1.45931 -0.10508,0.0939 -0.11373,0.0353 -0.0192,-0.13008 0.0945,-0.16541 -0.006,-0.44788 -0.22217,-0.62771 -0.27348,-0.22697 -0.39396,-0.23614 -0.39396,-0.03 0,0.16334 -0.17859,0.29698 -0.39687,0.29698 -0.21828,0 -0.39688,0.11906 -0.39688,0.26458 0,0.14553 -0.0893,0.23776 -0.19844,0.20498 -0.10914,-0.0328 -0.52027,0.24359 -0.91364,0.61416 -0.53259,0.50174 -0.67373,0.83235 -0.55278,1.29486 0.13394,0.51218 0.0816,0.59008 -0.29848,0.44423 -0.75685,-0.29043 -1.36466,0.37254 -1.35375,1.47661 0.005,0.54568 -0.0153,0.99216 -0.046,0.99219 -0.0307,3e-5 -0.28376,-0.24459 -0.56234,-0.5436 l -0.5065,-0.54367 -1.04168,1.21867 -1.04168,1.21867 -0.67702,-0.67702 c -0.58947,-0.58947 -0.71951,-0.62581 -1.00565,-0.28104 -0.18074,0.21778 -0.45259,0.31935 -0.60411,0.22571 -0.16058,-0.0992 -0.19626,-0.0421 -0.0855,0.13708 0.10623,0.17187 0.008,0.37703 -0.22218,0.46548 -0.22667,0.087 -0.34625,0.26473 -0.26574,0.395 0.0805,0.13027 0.006,0.23686 -0.16621,0.23686 -0.22049,0 -0.20561,0.1319 0.0505,0.44766 0.24009,0.29599 0.25215,0.38101 0.0356,0.25095 -0.25054,-0.15048 -0.28881,0.10193 -0.1628,1.07369 0.19655,1.51585 0.73712,2.2442 1.5198,2.04776 0.41192,-0.10338 0.82763,0.14406 1.58529,0.94363 l 1.02697,1.08376 0.62654,-0.58859 c 0.34459,-0.32373 0.62653,-0.87253 0.62653,-1.21955 z m -4.79625,-1.32733 c -0.33589,-0.4283 -0.32344,-0.43391 0.16604,-0.0749 0.29104,0.21348 0.57878,0.42184 0.63941,0.46302 0.0606,0.0412 -0.0141,0.0749 -0.16604,0.0749 -0.15196,0 -0.43969,-0.20836 -0.63941,-0.46302 z m 6.19053,-4.84698 c -0.0458,-0.60763 0.0789,-0.66108 0.28565,-0.12243 0.082,0.21362 0.0599,0.4435 -0.0491,0.51084 -0.10896,0.0673 -0.21542,-0.10745 -0.23659,-0.38841 z m 3.89739,-1.40448 c 0,-0.0549 0.20836,-0.2633 0.46302,-0.46302 0.41964,-0.32911 0.429,-0.31975 0.0999,0.0999 -0.34565,0.44073 -0.56292,0.58088 -0.56292,0.36312 z m 3.175,-1.32291 c 0,-0.0549 0.20836,-0.26331 0.46302,-0.46302 0.41964,-0.32911 0.429,-0.31975 0.0999,0.0999 -0.34565,0.44073 -0.56292,0.58089 -0.56292,0.36313 z m 104.29758,8.24796 c -0.16985,-0.33409 -0.57043,-0.93292 -0.89017,-1.33072 -0.96327,-1.19844 -0.30702,-1.15869 0.79621,0.0482 0.91139,0.99705 1.08533,1.08591 1.55342,0.79358 0.95929,-0.59909 1.21808,-1.27467 0.75753,-1.97756 -0.40829,-0.62313 -0.40749,-0.6238 0.40528,-0.34046 0.69556,0.24247 0.89304,0.20523 1.35353,-0.25526 0.46129,-0.46129 0.49796,-0.65731 0.25394,-1.35731 l -0.28521,-0.81815 h 1.06196 c 1.34066,0 1.9731,-0.33807 2.48526,-1.32848 0.42304,-0.81806 0.29817,-2.07566 -0.24205,-2.43778 -0.19639,-0.13165 -0.1782,-0.1957 0.0564,-0.19844 0.19049,-0.002 0.27276,-0.12311 0.18283,-0.26864 -0.30701,-0.49675 0.0391,-0.26567 0.68148,0.45502 0.35279,0.39578 0.43307,0.55979 0.17841,0.36448 -0.3935,-0.30181 -0.46302,-0.29492 -0.46302,0.0458 0,0.22053 0.19711,0.4766 0.43801,0.56904 0.51907,0.19919 1.67866,-0.78766 1.67866,-1.42859 0,-0.49182 -1.65932,-2.20181 -1.93783,-1.99702 -0.10079,0.0741 -0.0627,-0.008 0.0846,-0.18165 0.19899,-0.23503 0.56393,-0.0258 1.41914,0.81348 l 1.15126,1.12988 0.69855,-0.83019 0.69856,-0.83018 -0.93114,-0.97328 c -0.66556,-0.69569 -0.88552,-1.12421 -0.77121,-1.50245 0.3672,-1.21504 0.43426,-1.73869 0.21629,-1.68877 -0.4097,0.0938 -1.15918,-0.34331 -1.008,-0.58791 0.32556,-0.52678 -0.10063,-0.17169 -1.21882,1.01545 -0.6509,0.69105 -0.82382,0.95898 -0.38582,0.59783 0.72222,-0.59551 0.71158,-0.5653 -0.11804,0.33518 -0.50149,0.54432 -1.09681,0.9915 -1.32292,0.99373 -0.27335,0.003 -0.30989,0.0692 -0.10905,0.19844 0.20143,0.12962 0.0767,0.36371 -0.37428,0.70261 -0.37199,0.27952 -0.57883,0.35042 -0.45963,0.15755 0.14425,-0.23339 0.11457,-0.28753 -0.0887,-0.16188 -0.168,0.10384 -0.30546,0.41989 -0.30546,0.70234 0,0.28874 -0.18057,0.51355 -0.41249,0.51355 -0.22687,0 -0.34721,0.10562 -0.26743,0.23471 0.0798,0.1291 -0.0613,0.21839 -0.31357,0.19844 -0.27156,-0.0215 -0.63069,0.30678 -0.88044,0.80473 -0.23199,0.46255 -0.828,1.17567 -1.32446,1.58472 -0.56384,0.46456 -0.75369,0.54614 -0.50578,0.21733 0.37314,-0.4949 0.36754,-0.5033 -0.0936,-0.14049 -0.38064,0.29949 -0.46132,0.62534 -0.36032,1.45521 0.0716,0.58812 0.0737,0.91974 0.005,0.73693 -0.0689,-0.1828 -0.23419,-0.26507 -0.36729,-0.18282 -0.13309,0.0823 -0.24198,0.0235 -0.24198,-0.13064 0,-0.15411 -0.18562,-0.2802 -0.41249,-0.2802 -0.22687,0 -0.35143,0.0988 -0.2768,0.21955 0.0746,0.12074 -0.53953,0.86489 -1.36478,1.65364 -0.82525,0.78876 -1.29462,1.18508 -1.04305,0.88072 0.4382,-0.53015 0.43028,-0.58264 -0.18878,-1.25061 l -0.64617,-0.69724 -0.70324,0.83576 c -0.54901,0.65245 -0.66917,1.01378 -0.54788,1.64748 0.11191,0.5847 0.0826,0.70074 -0.1048,0.41487 -0.14994,-0.22874 -0.26187,-0.26593 -0.26421,-0.0878 -0.008,0.61749 0.32307,1.13915 0.61899,0.97504 0.16665,-0.0924 0.10308,0.0444 -0.14126,0.30404 -0.40798,0.43353 -0.40993,0.52448 -0.0239,1.11368 0.30194,0.46081 0.58159,0.60113 0.9925,0.498 0.42525,-0.10673 0.8365,0.12717 1.6021,0.91123 l 1.03,1.05481 0.65258,-0.65258 c 0.56137,-0.56137 0.60942,-0.73748 0.34375,-1.26003 z m -0.19649,-2.1288 -1.04588,-1.12448 1.12448,1.04589 c 1.04575,0.97266 1.24606,1.20307 1.04588,1.20307 -0.0432,0 -0.54924,-0.50602 -1.12448,-1.12448 z m -0.26244,-2.59107 c -0.40189,-0.44409 -0.41286,-0.51126 -0.0615,-0.37642 0.23525,0.0903 0.49273,0.33352 0.57217,0.54055 0.19768,0.51513 0.0656,0.47269 -0.51071,-0.16413 z m 3.36195,-2.62094 c -0.15477,-0.44399 -0.22512,-0.80726 -0.15633,-0.80726 0.17862,0 0.67787,1.37439 0.54685,1.50541 -0.06,0.06 -0.23574,-0.25416 -0.39052,-0.69815 z m 2.07232,-0.2014 c 0,-0.35121 0.99182,-1.22653 1.46916,-1.29659 0.21199,-0.0311 0.31711,0.054 0.23361,0.18911 -0.0835,0.13512 -0.25314,0.18306 -0.37695,0.10654 -0.12382,-0.0765 -0.47278,0.17572 -0.77547,0.56053 -0.3027,0.38482 -0.55035,0.583 -0.55035,0.44041 z m 4.49198,-4.18385 c -0.56129,-0.57911 -1.05694,-0.8738 -1.30867,-0.77807 -0.32759,0.12457 -0.34095,0.0894 -0.0698,-0.18377 0.27164,-0.27362 0.54752,-0.12572 1.45132,0.77808 0.61375,0.61375 1.05173,1.11592 0.97327,1.11592 -0.0785,0 -0.54921,-0.41947 -1.04613,-0.93216 z m -122.27367,0.18894 c -0.0231,-0.24607 -4.9474,-5.31053 -10.94277,-11.25434 -8.86353,-8.78731 -10.92641,-10.70852 -11.03838,-10.28033 -0.10905,0.417 2.1151,2.79228 10.68655,11.41269 5.95334,5.98735 10.93955,10.81483 11.08048,10.72774 0.14092,-0.0871 0.23728,-0.35969 0.21412,-0.60576 z m 112.7546,-0.18409 c 0,-0.44492 -21.25734,-21.6589 -21.82463,-21.78011 -0.2202,-0.047 -0.40037,0.0715 -0.40037,0.2634 0,0.45528 21.72888,22.19024 22.01021,22.01637 0.11814,-0.073 0.21479,-0.29786 0.21479,-0.49966 z m -99.13986,-0.68614 c 0.18712,-0.29905 0.14213,-0.66823 -0.15369,-1.26122 -0.23004,-0.46113 -0.28892,-0.75848 -0.13085,-0.66078 0.17163,0.10607 0.21136,0.0546 0.0986,-0.12784 -0.29159,-0.47181 -1.08263,-0.36208 -1.61276,0.2237 -0.46254,0.5111 -0.46168,0.54934 0.0251,1.11992 0.41032,0.48093 0.41794,0.52409 0.041,0.23219 -0.52853,-0.4093 -0.58921,-0.23018 -0.18064,0.53323 0.336,0.62782 1.50596,0.59162 1.91318,-0.0592 z m 113.21092,-0.63551 c 0.55365,-1.21513 -0.59504,-2.70115 -1.59863,-2.0681 -0.48322,0.30481 -0.64595,1.90811 -0.24348,2.39883 0.47436,0.57835 1.51286,0.3919 1.84211,-0.33073 z M 254.53078,121.73649 c 6.76262,-6.7597 8.41799,-8.66678 7.52286,-8.66678 -0.37682,0 -15.92172,15.66315 -15.92172,16.04284 0,0.19873 0.14808,0.36132 0.32907,0.36132 0.18099,0 3.8124,-3.48182 8.06979,-7.73738 z m -5.75303,4.95926 c 0.49365,-0.50932 0.95709,-0.92604 1.02985,-0.92604 0.0728,0 -0.27161,0.41672 -0.76527,0.92604 -0.49365,0.50932 -0.95708,0.92604 -1.02984,0.92604 -0.0728,0 0.2716,-0.41672 0.76526,-0.92604 z m 3.69311,-3.63802 c 1.09642,-1.16819 1.33397,-1.37824 1.33397,-1.17957 0,0.0425 -0.56554,0.60801 -1.25677,1.25677 l -1.25677,1.17957 z m 5.96418,-6.01927 c 1.88757,-1.89177 3.49148,-3.43958 3.56424,-3.43958 0.0728,0 -1.41208,1.54781 -3.29966,3.43958 -1.88757,1.89177 -3.49148,3.43958 -3.56424,3.43958 -0.0728,0 1.41209,-1.54781 3.29966,-3.43958 z m 109.55746,4.60344 c 4.28189,-4.30759 7.78525,-7.99853 7.78525,-8.20209 0,-0.20355 -0.1629,-0.3701 -0.36199,-0.3701 -0.1991,0 -3.8213,3.43821 -8.04933,7.64046 -6.04609,6.00921 -7.6211,7.71216 -7.37707,7.97631 0.23904,0.25876 0.23434,0.29299 -0.0205,0.14914 -0.1819,-0.1027 -0.33073,-0.0805 -0.33073,0.0494 0,0.24364 0.27022,0.58887 0.46093,0.58887 0.0595,0 3.61152,-3.52439 7.8934,-7.83197 z M 216.70301,102.67446 c 4.25319,-4.262176 7.73307,-7.880843 7.73307,-8.041481 0,-0.160638 -0.18185,-0.36185 -0.4041,-0.447138 -0.49475,-0.189853 -15.4709,14.686599 -15.4709,15.367909 0,0.3336 0.24798,0.21688 0.99219,-0.46703 l 0.99219,-0.9118 -0.90606,0.98627 c -0.69635,0.75798 -0.98724,0.9189 -1.25678,0.6952 -0.19635,-0.16296 -0.3507,-0.17976 -0.3507,-0.0382 0,0.33754 0.28571,0.60567 0.6454,0.60567 0.16094,0 3.7725,-3.48724 8.02569,-7.74942 z m -3.91965,3.18535 c 1.09642,-1.16818 1.33397,-1.37824 1.33397,-1.17956 0,0.0425 -0.56554,0.608 -1.25677,1.25677 l -1.25677,1.17956 z m 3.96875,-3.96875 c 1.09642,-1.16818 1.33397,-1.37824 1.33397,-1.17956 0,0.0425 -0.56554,0.608 -1.25677,1.25677 l -1.25677,1.17956 z m 3.71522,-3.770306 c 0.34178,-0.363802 0.68094,-0.661458 0.7537,-0.661458 0.0728,0 -0.14734,0.297656 -0.48911,0.661458 -0.34178,0.363802 -0.68094,0.661458 -0.7537,0.661458 -0.0728,0 0.14734,-0.297656 0.48911,-0.661458 z m 60.85417,-3.77771 c 0,-0.219707 -0.25941,-0.306696 -0.72761,-0.243995 -0.40018,0.05359 -0.7276,0.226336 -0.7276,0.383878 0,0.349926 -0.3547,0.72741 -0.68351,0.72741 -0.13339,0 -0.24623,0.119063 -0.25075,0.264584 -0.0115,0.3698 -2.6872,3.043289 -2.90878,2.90635 -0.0996,-0.06155 -0.45727,0.18207 -0.79483,0.541387 -0.33756,0.359315 -0.50776,0.653305 -0.37823,0.653305 0.12954,0 -0.40482,0.648397 -1.18746,1.440887 -0.78265,0.79248 -1.55249,1.41756 -1.71076,1.38906 -0.15827,-0.0285 -0.26309,0.0817 -0.23293,0.24496 0.0302,0.16323 -1.4908,1.8144 -3.37991,3.66926 -2.83656,2.78514 -3.37936,3.43921 -3.11672,3.75566 0.26469,0.31893 1.64111,-0.93937 8.20855,-7.50406 4.3398,-4.337989 7.89054,-8.040897 7.89054,-8.228686 z m -14.02292,13.616796 c 0,-0.0455 0.38696,-0.43249 0.8599,-0.8599 l 0.85989,-0.77711 -0.7771,0.8599 c -0.72437,0.80154 -0.94269,0.98151 -0.94269,0.77711 z m 4.7625,-4.81201 c 0.49366,-0.50932 0.95709,-0.92604 1.02985,-0.92604 0.0728,0 -0.27161,0.41672 -0.76526,0.92604 -0.49366,0.50933 -0.95709,0.92605 -1.02985,0.92605 -0.0728,0 0.27161,-0.41672 0.76526,-0.92605 z m 3.96875,-3.968743 c 0.79042,-0.800364 1.49667,-1.455208 1.56943,-1.455208 0.0728,0 -0.51442,0.654844 -1.30484,1.455208 -0.79043,0.800366 -1.49667,1.455203 -1.56943,1.455203 -0.0728,0 0.51442,-0.654837 1.30484,-1.455203 z m -0.66146,-0.132291 c 0.26339,-0.291042 0.53842,-0.529167 0.61118,-0.529167 0.0728,0 -0.0832,0.238125 -0.34659,0.529167 -0.26339,0.291037 -0.53842,0.529167 -0.61118,0.529167 -0.0728,0 0.0832,-0.23813 0.34659,-0.529167 z m 4.35457,-3.505729 c 1.09643,-1.168186 1.33398,-1.37824 1.33398,-1.179568 0,0.04246 -0.56555,0.608009 -1.25678,1.256771 l -1.25677,1.179567 z M 262.07822,109.9998 c 0.0877,-0.0877 0.0592,-0.42329 -0.0634,-0.7457 -0.30905,-0.81286 -21.19798,-21.601169 -21.5112,-21.407584 -0.13945,0.08618 4.61198,5.052203 10.55872,11.035604 5.94674,5.9834 8.5203,8.61821 5.71903,5.85513 -2.80128,-2.76308 -5.09323,-4.921317 -5.09323,-4.796087 0,0.255667 9.81745,10.218127 10.0694,10.218127 0.0886,0 0.23293,-0.0718 0.32065,-0.15949 z m 76.1287,-15.912288 c 0,-0.182811 -0.15789,-0.332383 -0.35087,-0.332383 -0.4555,0 -15.62019,15.045821 -15.69783,15.574771 -0.0325,0.22125 0.009,0.51198 0.0916,0.64605 0.18161,0.29385 15.95708,-15.413769 15.95708,-15.888438 z m -30.00227,4.13871 c -9.00432,-8.990041 -11.00438,-10.865591 -11.12053,-10.428272 -0.11344,0.427104 2.00196,2.6781 10.62953,11.310871 8.92357,8.928949 10.83108,10.717719 11.12053,10.428269 0.28945,-0.28945 -1.53384,-2.22962 -10.62953,-11.310868 z m 67.5731,11.157678 c 0,-0.17321 -2.0786,-2.38713 -6.41894,-6.83685 -0.18036,-0.18491 -0.80418,-0.79723 -1.38627,-1.36073 -0.58208,-0.56349 -1.47505,-1.483767 -1.98437,-2.045049 -0.50932,-0.561284 -1.40229,-1.453599 -1.98438,-1.982921 -0.58208,-0.529322 -3.06891,-2.999869 -5.52628,-5.490104 -2.45737,-2.490235 -4.49731,-4.5277 -4.5332,-4.5277 -0.0359,0 -0.13592,0.267891 -0.22228,0.595313 -0.13424,0.508925 1.41204,2.164737 10.65577,11.41062 9.66283,9.665081 11.39995,11.225061 11.39995,10.237421 z m -9.26194,-8.68346 -8.59743,-8.665103 8.6651,8.597433 c 4.76581,4.72858 8.66511,8.62788 8.66511,8.6651 0,0.18673 -0.74263,-0.54439 -8.73278,-8.59743 z m -10.98863,-10.980207 -1.31297,-1.389062 1.38906,1.31297 c 1.29074,1.220036 1.5104,1.465155 1.31297,1.465155 -0.0419,0 -0.66693,-0.625078 -1.38906,-1.389063 z m -109.3854,4.441646 c -3.12073,-3.123267 -5.71969,-5.633037 -5.77546,-5.577267 -0.13985,0.139853 10.86145,11.171801 11.18725,11.218411 0.14425,0.0206 -2.29105,-2.517878 -5.41179,-5.641144 z m -15.17431,-2.304954 c 0.59515,-0.559113 0.81548,-1.40441 0.41393,-1.588014 -0.41214,-0.188443 -1.74101,-1.806284 -1.59971,-1.947579 0.0812,-0.08121 0.31704,0.0068 0.52407,0.195677 0.20703,0.188831 0.75619,0.692258 1.22034,1.118727 l 0.84392,0.775399 0.66324,-0.623082 c 0.95035,-0.892805 0.89185,-1.618892 -0.0625,-0.775398 -0.64044,0.566065 -0.66724,0.572067 -0.22807,0.05108 0.39277,-0.465941 0.43149,-0.670067 0.1837,-0.968632 -0.48463,-0.583946 0.10782,-0.772392 0.99156,-0.315393 0.72255,0.373644 0.80034,0.359844 1.36605,-0.24232 0.45981,-0.489446 0.56226,-0.826526 0.43882,-1.443729 -0.15706,-0.785339 -0.13598,-0.805201 0.8546,-0.805201 1.1805,0 2.35434,-0.974862 2.58947,-2.150536 0.097,-0.484886 0.26778,-0.673453 0.52173,-0.576001 0.50752,0.194753 1.41618,-0.662956 1.41618,-1.33677 0,-0.29794 -0.37881,-0.932547 -0.84181,-1.410237 -0.46299,-0.477691 -0.76278,-0.947557 -0.66619,-1.044147 0.0966,-0.09659 0.65251,0.348111 1.23537,0.988224 l 1.05976,1.163842 0.66477,-0.742358 c 0.7074,-0.789961 0.8617,-1.618245 0.35931,-1.928741 -0.20492,-0.126644 -0.23539,-0.06647 -0.0926,0.182823 0.11709,0.204385 -0.22108,-0.0381 -0.75149,-0.53885 l -0.96439,-0.910456 0.58507,-0.622786 c 0.45826,-0.487795 0.5235,-0.72057 0.30099,-1.073916 -0.43994,-0.698631 -1.18732,-0.705457 -1.74952,-0.01598 -0.27948,0.342751 -0.4204,0.44459 -0.31316,0.226309 0.29901,-0.608597 -1.70773,1.327122 -2.52796,2.4385 -0.39914,0.54081 -0.80107,0.907919 -0.89319,0.815798 -0.0921,-0.09212 -0.1675,0.0039 -0.1675,0.213312 0,0.209443 -0.41044,0.601845 -0.9121,0.872005 -0.50273,0.270739 -1.10663,0.901142 -1.34553,1.404572 -0.23838,0.502354 -0.50186,0.844927 -0.58552,0.761275 -0.16406,-0.164064 -0.79274,0.619225 -0.80709,1.005581 -0.005,0.129251 -0.16007,0.328536 -0.34504,0.442856 -0.27099,0.167477 -0.26908,0.288865 0.01,0.624894 0.41454,0.499485 0.20275,0.537695 -0.51069,0.09214 -0.4581,-0.286084 -0.66314,-0.184671 -1.71621,0.848838 -0.65777,0.645557 -1.19595,1.07484 -1.19595,0.953963 0,-0.120878 -0.16228,-0.08509 -0.36063,0.07952 -0.29094,0.24146 -0.33725,0.177023 -0.23966,-0.333465 0.12419,-0.649685 -0.47193,-1.314567 -0.66346,-0.739982 -0.0574,0.172192 -0.2162,0.243954 -0.3529,0.15947 -0.1367,-0.08448 -0.21583,0.0041 -0.17584,0.196789 0.04,0.192718 -0.085,0.31768 -0.2777,0.277694 -0.19271,-0.03998 -0.27498,0.04931 -0.18282,0.198438 0.0922,0.149126 0.0345,0.271139 -0.12824,0.271139 -0.1627,0 -0.22223,0.119062 -0.13229,0.264583 0.0899,0.145521 0.0237,0.264583 -0.14716,0.264583 -0.44898,0 -0.0498,2.915965 0.48041,3.50947 0.2427,0.271666 0.61461,0.40404 0.88978,0.316702 0.32821,-0.104168 0.76907,0.177884 1.44161,0.922302 0.53284,0.589798 1.03658,1.072359 1.11941,1.072359 0.0828,0 0.42616,-0.258879 0.76296,-0.575287 z m -2.04771,-1.475233 -0.9118,-0.992188 0.99219,0.911799 c 0.5457,0.501489 0.99218,0.947973 0.99218,0.992187 0,0.202041 -0.22389,0.01171 -1.07257,-0.911798 z m 1.60174,0.892292 c 0,-0.05494 0.20836,-0.263301 0.46302,-0.46302 0.41964,-0.329108 0.429,-0.319749 0.0999,0.09989 -0.34564,0.44073 -0.56291,0.580887 -0.56291,0.363126 z m 4.23333,-4.233333 c 0,-0.05494 0.20836,-0.263301 0.46302,-0.463021 0.41965,-0.329107 0.42901,-0.319749 0.0999,0.0999 -0.34564,0.440729 -0.56291,0.580887 -0.56291,0.363126 z m -4.23864,-1.361707 c -0.18407,-0.221798 -0.28344,-0.454508 -0.22082,-0.517134 0.0626,-0.06263 0.2592,0.118845 0.43682,0.403269 0.38413,0.615083 0.25602,0.682614 -0.216,0.113865 z m 6.35531,-2.607043 c 0,-0.05494 0.20836,-0.263301 0.46302,-0.46302 0.41964,-0.329108 0.429,-0.319749 0.0999,0.09989 -0.34564,0.44073 -0.56291,0.580887 -0.56291,0.363126 z m 3.175,-1.322916 c 0,-0.05494 0.20836,-0.263302 0.46302,-0.463021 0.41964,-0.329107 0.429,-0.319749 0.0999,0.09989 -0.34564,0.440729 -0.56291,0.580887 -0.56291,0.363126 z m 48.41875,8.9017 c 0,-0.347024 -0.0997,-0.569325 -0.22159,-0.494004 -0.12187,0.07532 -0.68248,-0.335053 -1.2458,-0.911944 -1.00611,-1.030352 -1.01509,-1.057051 -0.50791,-1.510396 0.28397,-0.253827 0.36833,-0.288863 0.18747,-0.07786 -0.4061,0.473783 -0.43179,0.901836 -0.0396,0.659434 0.1591,-0.09832 0.81184,0.334095 1.45054,0.960934 l 1.16129,1.139707 0.66612,-0.625794 c 0.87374,-0.82083 0.93776,-1.639295 0.0708,-0.905289 l -0.59532,0.504028 0.49954,-0.590349 c 0.42414,-0.501248 0.44593,-0.654948 0.14433,-1.018345 -0.32608,-0.392903 -0.27681,-0.39524 0.60093,-0.0285 0.91664,0.382994 0.98045,0.373617 1.54468,-0.226975 0.44893,-0.477868 0.55034,-0.817476 0.4275,-1.431674 -0.15707,-0.785339 -0.13599,-0.805201 0.8546,-0.805201 1.1805,0 2.35433,-0.974862 2.58947,-2.150536 0.097,-0.484886 0.26778,-0.673453 0.52173,-0.576001 0.46105,0.176918 1.41618,-0.638976 1.41618,-1.209725 0,-0.324483 -0.12789,-0.286768 -0.58807,0.173414 l -0.58808,0.588078 -1.66088,-1.646118 c -0.91349,-0.905364 -1.66088,-1.513636 -1.66088,-1.351714 0,0.161922 -0.27901,0.364429 -0.62002,0.450018 -0.34101,0.08559 -0.9353,0.470893 -1.32064,0.856234 -0.59368,0.593678 -0.68048,0.867097 -0.56869,1.791297 0.0726,0.599873 0.0555,0.912084 -0.0378,0.693803 -0.38566,-0.901745 -0.64537,-1.038158 -1.15147,-0.604821 -0.26854,0.229929 -0.42643,0.579138 -0.35088,0.77602 0.0756,0.196882 0.001,0.357968 -0.16484,0.357968 -0.2232,0 -0.22029,0.153044 0.0111,0.585423 0.30972,0.578714 0.30548,0.580293 -0.3699,0.137767 -0.67886,-0.4448 -0.69002,-0.43993 -1.74943,0.763626 l -1.06621,1.211281 -0.68923,-0.753736 c -0.46254,-0.505833 -0.73426,-0.644417 -0.82613,-0.421359 -0.0753,0.182808 -0.24875,0.263255 -0.38545,0.178771 -0.1367,-0.08448 -0.21583,0.0041 -0.17584,0.196789 0.04,0.192718 -0.085,0.31768 -0.27769,0.277694 -0.19272,-0.03998 -0.27499,0.04931 -0.18283,0.198438 0.0922,0.149126 0.0216,0.271139 -0.15672,0.271139 -0.17836,0 -0.24595,0.07834 -0.1502,0.174093 0.0958,0.09575 0.0415,0.333876 -0.12059,0.529167 -0.18988,0.228784 -0.19787,0.355073 -0.0225,0.355073 0.14971,0 0.20977,0.238759 0.13346,0.530576 -0.0763,0.291817 0.0241,0.73139 0.22321,0.976831 0.24738,0.305004 0.25727,0.383363 0.0312,0.247559 -0.53411,-0.32088 -0.39742,0.748502 0.16017,1.253114 0.28253,0.25569 0.67977,0.371785 0.93587,0.273512 0.30765,-0.118055 0.77908,0.170094 1.52761,0.933712 l 1.08264,1.104461 0.62732,-0.589337 c 0.34503,-0.324135 0.62732,-0.873265 0.62732,-1.220289 z m -1.05833,0.623299 c 0,-0.05494 0.20835,-0.263301 0.46302,-0.46302 0.41964,-0.329108 0.429,-0.319749 0.0999,0.09989 -0.34565,0.44073 -0.56292,0.580887 -0.56292,0.363126 z m 4.23333,-4.233333 c 0,-0.05494 0.20836,-0.263301 0.46302,-0.463021 0.41965,-0.329107 0.42901,-0.319749 0.0999,0.0999 -0.34564,0.440729 -0.56292,0.580887 -0.56292,0.363126 z m 1.5875,-4.04322 c 0,-0.144408 0.32742,-0.551205 0.72761,-0.903993 l 0.7276,-0.641433 -0.66146,0.79375 c -0.3638,0.436562 -0.69122,0.843359 -0.7276,0.903993 -0.0364,0.06063 -0.0662,-0.0079 -0.0662,-0.152317 z m -0.88136,-0.795196 c -0.0973,-0.09733 -0.17515,-0.305951 -0.17292,-0.463598 0.002,-0.157648 0.10605,-0.125678 0.23071,0.07104 0.17759,0.280249 0.3199,0.224548 0.6574,-0.257309 0.23692,-0.338241 0.43076,-0.487883 0.43076,-0.332537 0,0.39745 -0.93196,1.196396 -1.14595,0.982401 z m 52.47511,8.7432 c 0,-0.184911 -0.56554,-0.872363 -1.25677,-1.52767 -1.23497,-1.1708 -1.24784,-1.199736 -0.74209,-1.668197 0.42826,-0.396693 0.45776,-0.400941 0.17566,-0.0253 -0.18646,0.248287 -0.25436,0.588421 -0.15088,0.755852 0.14113,0.228354 0.23617,0.226711 0.38035,-0.0066 0.1291,-0.208879 0.54819,0.04145 1.27636,0.762374 1.16893,1.157308 1.61871,1.182665 2.1857,0.123224 0.2802,-0.523548 0.28806,-0.771322 0.0372,-1.173002 -0.4594,-0.735624 -0.40844,-0.785001 0.48779,-0.472576 0.66354,0.231312 0.89711,0.198286 1.32291,-0.187062 0.51923,-0.469894 0.72284,-1.708874 0.28083,-1.708874 -0.12995,0 -0.29355,-0.148828 -0.36355,-0.330729 -0.0933,-0.24258 0.20105,-0.307331 1.10459,-0.24294 1.0574,0.07536 1.33618,-0.01652 1.96834,-0.64868 0.40506,-0.405058 0.80441,-1.076168 0.88745,-1.491355 0.10729,-0.536447 0.26731,-0.710243 0.55301,-0.600611 0.48302,0.185353 1.64269,-0.83292 1.64269,-1.442402 0,-0.237129 -0.41672,-0.835044 -0.92605,-1.328699 -0.50932,-0.493655 -0.92604,-1.018551 -0.92604,-1.166435 0,-0.147885 0.57789,0.300319 1.2842,0.996007 l 1.2842,1.264887 0.71685,-0.851936 0.71686,-0.851936 -1.2073,-1.225736 c -0.66402,-0.674154 -1.20548,-1.340708 -1.20326,-1.481231 0.002,-0.140522 0.11311,-0.08311 0.24641,0.127581 0.1934,0.305696 0.31038,0.23376 0.57915,-0.356116 0.2991,-0.656452 0.27892,-0.773093 -0.18026,-1.042047 -0.62293,-0.364867 -1.48536,-0.457974 -1.28827,-0.139081 0.0775,0.12547 -0.0224,0.228127 -0.222,0.228127 -0.19965,0 -0.71269,0.386953 -1.1401,0.859895 l -0.7771,0.859896 0.92604,-0.793195 0.92604,-0.793196 -0.9118,0.991633 c -0.50149,0.545398 -1.0968,0.993456 -1.32291,0.995685 -0.2898,0.0029 -0.31759,0.06351 -0.0942,0.20554 0.21703,0.137961 0.0713,0.366089 -0.46226,0.723552 -0.42857,0.287136 -0.77956,0.670893 -0.77997,0.852794 -4.2e-4,0.181901 -0.18638,0.330729 -0.41325,0.330729 -0.22687,0 -0.34722,0.105619 -0.26743,0.23471 0.0798,0.129091 -0.0581,0.218388 -0.30647,0.198438 -0.26908,-0.02162 -0.66601,0.35778 -0.98237,0.938994 -0.54148,0.994792 -0.52565,1.251758 0.21694,3.522649 0.0952,0.291042 -0.0639,0.05292 -0.35355,-0.529166 -0.28963,-0.582084 -0.52971,-1.287447 -0.53353,-1.567475 -0.006,-0.470179 -0.0608,-0.460055 -0.71106,0.132291 -0.38727,0.352789 -0.61837,0.492605 -0.51355,0.310704 0.10481,-0.181901 0.12017,-0.330729 0.0341,-0.330729 -0.35559,0 -0.59263,1.216131 -0.33329,1.709902 0.2631,0.500928 0.249,0.503726 -0.39893,0.07918 -0.62765,-0.411252 -0.69743,-0.410604 -1.06476,0.0099 -0.2162,0.24749 -0.35734,0.669252 -0.31365,0.937247 0.0437,0.267996 0.007,0.414403 -0.0825,0.325348 -0.0891,-0.08906 -0.64264,0.286988 -1.2302,0.835652 -0.58755,0.548663 -0.85688,0.743368 -0.5985,0.432677 0.45459,-0.546632 0.44805,-0.589392 -0.20224,-1.322916 l -0.67202,-0.758026 -0.53047,0.661459 c -0.96897,1.208245 -1.36241,3.819465 -0.49469,3.283181 0.19509,-0.120573 0.23577,-0.07415 0.11139,0.127112 -0.10778,0.174379 -0.0369,0.520197 0.15755,0.768484 0.31947,0.407964 0.30831,0.415956 -0.1159,0.083 -0.65729,-0.515885 -0.90622,-0.142249 -0.32968,0.494823 0.30435,0.336304 0.67832,0.475852 1.03519,0.386284 0.40943,-0.102761 0.83739,0.145186 1.60186,0.928066 l 1.04315,1.06829 0.60997,-0.573031 c 0.33548,-0.315168 0.60996,-0.724323 0.60996,-0.909235 z m -0.40932,-2.548118 -1.04589,-1.124479 1.12448,1.045884 c 0.61847,0.575236 1.12448,1.081252 1.12448,1.124479 0,0.200178 -0.23041,-1.3e-4 -1.20307,-1.045884 z m 6.75932,-4.267082 c 0,-0.05494 0.20836,-0.263302 0.46302,-0.463021 0.41965,-0.329108 0.42901,-0.319749 0.0999,0.0999 -0.34565,0.440729 -0.56292,0.580887 -0.56292,0.363126 z m -1.5875,-1.133644 c 0,-0.135613 0.46403,-0.699676 1.03117,-1.253474 0.96415,-0.941471 1.00284,-1.036802 0.59531,-1.466935 -0.23972,-0.253016 -0.55492,-0.400295 -0.70044,-0.327288 -0.14552,0.07301 -0.17632,0.03531 -0.0684,-0.08377 0.10788,-0.119082 0.0635,-0.376295 -0.0985,-0.571586 -0.74949,-0.903084 0.0702,-0.197554 1.49818,1.289481 0.86857,0.904505 1.3411,1.455822 1.05005,1.22515 -0.29104,-0.230672 -0.70776,-0.366345 -0.92604,-0.301494 -0.32037,0.09518 -0.32768,0.0694 -0.0379,-0.133744 0.21907,-0.153569 0.25653,-0.31497 0.0961,-0.414105 -0.25729,-0.159015 -0.71948,0.232033 -0.89562,0.757764 -0.0488,0.145521 -0.1711,0.2371 -0.27187,0.203509 -0.10078,-0.03359 -0.4282,0.250356 -0.72761,0.630994 -0.29941,0.380637 -0.54438,0.581112 -0.54438,0.4455 z m 4.31006,-4.368107 c -0.74201,-0.742005 -0.89456,-0.797282 -1.31783,-0.477511 -0.45823,0.346176 -0.45879,0.339931 -0.0131,-0.146113 0.4556,-0.496899 0.48659,-0.486698 1.4508,0.477512 0.5419,0.541892 0.92542,0.985258 0.85229,0.985258 -0.0731,0 -0.51058,-0.377616 -0.97211,-0.839146 z m -56.69379,1.239909 c -1.32846,-1.370629 -0.89192,-1.664479 0.47402,-0.319076 l 1.27154,1.25242 0.58055,-0.617961 c 0.80601,-0.857964 0.73943,-1.157267 -0.52166,-2.344957 -1.1006,-1.036549 -1.10137,-1.038626 -0.52916,-1.439413 0.71008,-0.497362 0.73435,-1.060152 0.0613,-1.420384 -0.80378,-0.430172 -1.34031,-0.327985 -1.34031,0.255275 0,0.291041 -0.12609,0.529166 -0.2802,0.529166 -0.1541,0 -0.19644,-0.148828 -0.0941,-0.330729 0.10237,-0.181901 -0.36169,0.195009 -1.03124,0.837579 -0.66956,0.642569 -1.14392,1.297413 -1.05414,1.455208 0.0898,0.157795 0.0645,0.197344 -0.0561,0.08789 -0.12067,-0.109458 -0.44165,0.0021 -0.7133,0.247965 -0.47601,0.43079 -0.43411,0.507312 1.15698,2.112666 l 1.65088,1.665687 0.61126,-0.574251 0.61126,-0.57425 z M 231.31525,78.60007 c 0,-0.328599 -21.03562,-21.511872 -21.7701,-21.922908 -0.24814,-0.138869 -0.37133,-0.05925 -0.38101,0.24627 -0.0161,0.508729 21.29885,22.015031 21.81917,22.015031 0.18257,0 0.33194,-0.152277 0.33194,-0.338393 z m -2.00102,-1.315253 -0.77711,-0.859896 0.8599,0.777106 c 0.80154,0.724371 0.98151,0.942686 0.77711,0.942686 -0.0455,0 -0.43249,-0.386953 -0.8599,-0.859896 z m -4.10442,-4.101041 -0.64144,-0.727604 0.72761,0.641433 c 0.40018,0.352788 0.7276,0.68021 0.7276,0.727604 0,0.207506 -0.21426,0.03862 -0.81377,-0.641433 z m -3.71789,-3.704167 c -0.32911,-0.419644 -0.31975,-0.429002 0.0999,-0.09989 0.25466,0.19972 0.46302,0.408079 0.46302,0.463021 0,0.217761 -0.21727,0.0776 -0.56292,-0.363126 z m 66.61209,9.064522 c 0.0898,-0.234017 -0.19554,-0.744954 -0.70187,-1.25677 -20.15159,-20.370093 -20.99685,-21.188783 -21.26229,-20.593907 -0.23642,0.529846 0.72827,1.571729 10.56838,11.414039 5.95571,5.957033 10.92214,10.83097 11.03651,10.83097 0.11437,0 0.27604,-0.177449 0.35927,-0.394332 z m -0.99543,-0.597855 c -0.3291,-0.419644 -0.31975,-0.429003 0.0999,-0.09989 0.25466,0.199719 0.46302,0.408078 0.46302,0.463021 0,0.217761 -0.21727,0.0776 -0.56291,-0.363126 z m -3.14647,-3.175 -2.50832,-2.579688 2.57969,2.508316 c 1.41883,1.379574 2.57969,2.540433 2.57969,2.579688 0,0.191728 -0.32137,-0.11233 -2.65106,-2.508316 z m -5.1641,-5.159375 -1.31297,-1.389062 1.38906,1.31297 c 0.76399,0.722134 1.38907,1.347212 1.38907,1.389062 0,0.19743 -0.24512,-0.02223 -1.46516,-1.31297 z m -3.70667,-3.704167 -1.04588,-1.124479 1.12448,1.045884 c 0.61846,0.575237 1.12448,1.081252 1.12448,1.124479 0,0.200178 -0.23042,-1.29e-4 -1.20308,-1.045884 z m -3.96875,-3.968749 -1.04588,-1.12448 1.12448,1.045885 c 0.61846,0.575236 1.12448,1.081251 1.12448,1.124479 0,0.200177 -0.23042,-1.3e-4 -1.20308,-1.045884 z m -4.24602,-4.233334 -0.50403,-0.595312 0.59531,0.504028 c 0.32742,0.277215 0.59532,0.545106 0.59532,0.595312 0,0.211734 -0.21294,0.05542 -0.6866,-0.504028 z m 77.8943,20.635764 c 0.0977,-0.503859 -21.55727,-22.242691 -21.92843,-22.013301 -0.13527,0.0836 -0.24594,0.335897 -0.24594,0.560665 0,0.493547 16.61826,17.085037 16.92359,16.896331 0.11791,-0.07287 0.37669,0.07456 0.57508,0.327621 0.32642,0.416366 0.31669,0.425586 -0.10231,0.09698 -0.25466,-0.199719 -0.46302,-0.261606 -0.46302,-0.137526 0,0.377392 4.6026,4.875471 4.89065,4.779587 0.14779,-0.0492 0.30547,-0.278859 0.35038,-0.510357 z m -1.29231,-0.659723 -0.64143,-0.727604 0.79375,0.661458 c 0.43656,0.363803 0.84336,0.691224 0.90399,0.727605 0.0606,0.03638 -0.008,0.06614 -0.15232,0.06614 -0.1444,0 -0.5512,-0.327421 -0.90399,-0.727604 z m -98.45789,0.145521 c 0.35392,-0.353929 0.42521,-1.338678 0.11906,-1.644826 -0.10914,-0.109141 -0.19844,-0.335713 -0.19844,-0.503495 0,-0.50081 -0.92824,-0.524617 -1.46638,-0.03761 -0.39785,0.360049 -0.44282,0.562008 -0.2185,0.981163 0.20382,0.380836 0.20145,0.47772 -0.008,0.347957 -0.39322,-0.243023 -0.3715,0.458794 0.0265,0.856811 0.17462,0.174625 0.56753,0.3175 0.87312,0.3175 0.3056,0 0.6985,-0.142875 0.87313,-0.3175 z m 57.07123,-0.213564 c 0.0927,-0.292085 -0.0102,-0.889403 -0.2287,-1.327372 -0.21849,-0.43797 -0.26792,-0.716376 -0.10984,-0.618681 0.17162,0.106071 0.21135,0.05457 0.0986,-0.127836 -0.45796,-0.740997 -2.00964,0.08969 -2.00964,1.075854 0,0.934555 0.51106,1.529099 1.31439,1.529099 0.53515,0 0.8175,-0.160342 0.93517,-0.531064 z m 56.5473,-0.155027 c 0.25131,-0.551574 0.23545,-0.823551 -0.0809,-1.38719 -0.48761,-0.868729 -1.18192,-1.027255 -1.85022,-0.422445 -0.9879,0.894035 -0.45624,2.495726 0.82841,2.495726 0.5936,0 0.86787,-0.170646 1.10272,-0.686091 z M 249.2358,70.146293 c 1.3488,-1.343193 2.45237,-2.561232 2.45237,-2.706753 0,-0.145521 -1.1311,0.861807 -2.51355,2.238507 -1.38244,1.376699 -2.51354,2.445141 -2.51354,2.374313 0,-0.07083 3.47447,-3.580819 7.72104,-7.799982 4.24657,-4.219163 7.55056,-7.443484 7.34219,-7.165158 -0.33141,0.442683 -0.32916,0.489783 0.018,0.376151 0.60064,-0.196591 0.67027,-1.216981 0.0799,-1.171047 -0.46748,0.03637 -15.52003,14.941579 -15.78401,15.629503 -0.15058,0.392401 0.0401,0.666636 0.46355,0.666636 0.15491,0 1.38522,-1.098976 2.73402,-2.44217 z m 7.53979,-7.614203 c 2.63226,-2.620588 4.73176,-4.818885 4.66554,-4.885103 -0.0662,-0.06622 -2.31628,2.0779 -5.00014,4.764707 -2.68386,2.686807 -4.78336,4.885103 -4.66555,4.885103 0.11781,0 2.36788,-2.144118 5.00015,-4.764707 z m 117.94383,-4.495709 c 0,-0.145521 -0.0525,-0.264584 -0.11668,-0.264584 -0.0642,0 -0.19026,0.119063 -0.2802,0.264584 -0.0899,0.14552 -0.0374,0.264583 0.11668,0.264583 0.15411,0 0.2802,-0.119063 0.2802,-0.264583 z M 259.36108,221.94575 c -0.64268,-0.65485 -1.10898,-1.19063 -1.03622,-1.19063 0.0728,0 0.65813,0.53578 1.30081,1.19063 0.64268,0.65484 1.10897,1.19062 1.03621,1.19062 -0.0728,0 -0.65812,-0.53578 -1.3008,-1.19062 z m 9.12813,-1.98438 c 1.7417,-1.74625 3.22626,-3.175 3.29902,-3.175 0.0728,0 -1.29274,1.42875 -3.03444,3.175 -1.7417,1.74625 -3.22626,3.175 -3.29902,3.175 -0.0728,0 1.29274,-1.42875 3.03444,-3.175 z m 105.27903,2.57969 -0.50403,-0.59531 0.59531,0.50402 c 0.55945,0.47367 0.71576,0.6866 0.50403,0.6866 -0.0502,0 -0.3181,-0.26789 -0.59531,-0.59531 z m -50.37799,-1.12448 c 0.34178,-0.3638 0.68094,-0.66146 0.7537,-0.66146 0.0728,0 -0.14734,0.29766 -0.48911,0.66146 -0.34178,0.3638 -0.68094,0.66146 -0.7537,0.66146 -0.0728,0 0.14734,-0.29766 0.48911,-0.66146 z m 3.17028,-2.31511 c 1.52536,-1.56434 2.80529,-2.84427 2.84427,-2.84427 0.19108,0 -0.13158,0.33916 -2.7734,2.91515 l -2.84427,2.7734 z m 36.25124,-7.54062 -9.39131,-9.45885 9.45885,9.39131 c 8.79105,8.72827 9.57786,9.52639 9.39132,9.52639 -0.0371,0 -4.29364,-4.25648 -9.45886,-9.45885 z m -107.16389,6.61458 -1.44617,-1.52135 1.52135,1.44617 c 0.83675,0.79539 1.52136,1.48 1.52136,1.52135 0,0.19639 -0.253,-0.0328 -1.59654,-1.44617 z m -43.11805,1.17398 c 0,-0.0455 0.38696,-0.43248 0.8599,-0.85989 l 0.85989,-0.77711 -0.7771,0.8599 c -0.72437,0.80154 -0.94269,0.98151 -0.94269,0.7771 z m 39.28068,-5.01043 -1.31297,-1.38907 1.38906,1.31297 c 1.29074,1.22004 1.5104,1.46516 1.31297,1.46516 -0.0418,0 -0.66693,-0.62508 -1.38906,-1.38906 z m 22.36724,-0.0662 c 0.79042,-0.80037 1.49666,-1.45521 1.56942,-1.45521 0.0728,0 -0.51442,0.65484 -1.30484,1.45521 -0.79042,0.80036 -1.49666,1.45521 -1.56942,1.45521 -0.0728,0 0.51442,-0.65485 1.30484,-1.45521 z m -57.67917,1.10783 c 0,-0.0455 0.38696,-0.43248 0.8599,-0.85989 l 0.85989,-0.77711 -0.7771,0.8599 c -0.72437,0.80154 -0.94269,0.98151 -0.94269,0.7771 z m 31.34318,-5.01043 -1.31297,-1.38907 1.38906,1.31297 c 1.29074,1.22004 1.5104,1.46516 1.31297,1.46516 -0.0418,0 -0.66692,-0.62508 -1.38906,-1.38906 z m 30.17245,0.0661 c 0.71666,-0.7276 1.36255,-1.32292 1.43531,-1.32292 0.0728,0 -0.45407,0.59532 -1.17073,1.32292 -0.71666,0.72761 -1.36256,1.32292 -1.43532,1.32292 -0.0728,0 0.45407,-0.59531 1.17074,-1.32292 z m -57.54688,0.95844 c 0,-0.0549 0.20836,-0.2633 0.46302,-0.46302 0.41965,-0.32911 0.42901,-0.31975 0.0999,0.0999 -0.34564,0.44073 -0.56291,0.58089 -0.56291,0.36313 z m 114.96146,-1.22302 c 0.71667,-0.72761 1.36256,-1.32292 1.43532,-1.32292 0.0728,0 -0.45407,0.59531 -1.17073,1.32292 -0.71667,0.7276 -1.36256,1.32291 -1.43532,1.32291 -0.0728,0 0.45407,-0.59531 1.17073,-1.32291 z m -31.91604,-2.05043 c -0.3291,-0.41965 -0.31975,-0.42901 0.0999,-0.0999 0.44073,0.34565 0.58089,0.56292 0.36312,0.56292 -0.0549,0 -0.2633,-0.20836 -0.46302,-0.46302 z m -5.27216,-4.49792 -0.9118,-0.99219 0.99219,0.9118 c 0.54571,0.50149 0.99219,0.94797 0.99219,0.99219 0,0.20204 -0.2239,0.0117 -1.07258,-0.9118 z m 1.30341,0.52917 c -0.3291,-0.41965 -0.31975,-0.42901 0.0999,-0.0999 0.44073,0.34565 0.58089,0.56292 0.36312,0.56292 -0.0549,0 -0.2633,-0.20836 -0.46302,-0.46302 z m -59.39035,-1.45521 -0.50403,-0.59531 0.59532,0.50402 c 0.55944,0.47367 0.71576,0.6866 0.50402,0.6866 -0.0502,0 -0.31809,-0.26789 -0.59531,-0.59531 z M 362.15171,69.94263 c 0.56839,-0.582083 1.09297,-1.058333 1.16573,-1.058333 0.0728,0 -0.33276,0.47625 -0.90115,1.058333 -0.56839,0.582083 -1.09296,1.058333 -1.16572,1.058333 -0.0728,0 0.33275,-0.47625 0.90114,-1.058333 z m 4.10104,-4.101041 c 0.49366,-0.509323 0.95709,-0.926042 1.02985,-0.926042 0.0728,0 -0.27161,0.416719 -0.76526,0.926042 -0.49366,0.509323 -0.95709,0.926041 -1.02985,0.926041 -0.0728,0 0.27161,-0.416718 0.76526,-0.926041 z m 3.70417,-3.704167 c 0.34177,-0.363802 0.68094,-0.661458 0.7537,-0.661458 0.0728,0 -0.14734,0.297656 -0.48912,0.661458 -0.34177,0.363802 -0.68094,0.661458 -0.7537,0.661458 -0.0728,0 0.14734,-0.297656 0.48912,-0.661458 z"
         id="path2" /></g></g></svg>
